<?xml version="1.0" encoding="iso-8859-1"?>
<!-- Generator: Adobe Illustrator 19.0.0, SVG Export Plug-In . SVG Version: 6.00 Build 0)  -->
<svg version="1.1" id="Layer_1" xmlns="http://www.w3.org/2000/svg" xmlns:xlink="http://www.w3.org/1999/xlink" x="0px" y="0px"
	 viewBox="0 0 512 512" style="enable-background:new 0 0 512 512;" xml:space="preserve">
<path style="fill:#F7B239;" d="M325.57,187.644c17.158,45.574,17.158,91.136,0,136.71c-46.377,16.858-92.755,16.858-139.132,0
	c-13.645-36.234-16.438-72.455-8.393-108.677c4.844,13.369,17.661,22.937,32.709,22.937c19.208,0,34.771-15.575,34.771-34.771
	c0-11.103-5.204-20.994-13.309-27.349v-0.012C263.33,172.609,294.456,176.337,325.57,187.644z M290.955,275.639
	c0-10.923-8.861-19.783-19.783-19.783c-10.935,0-19.783,8.861-19.783,19.783s8.849,19.783,19.783,19.783
	C282.094,295.422,290.955,286.561,290.955,275.639z"/>
<path style="fill:#E09B2D;" d="M212.217,206.286c1.657-9.198,3.78-18.403,6.361-27.605c-10.713,2.093-21.424,5.066-32.139,8.964
	c-3.525,9.34-6.319,18.692-8.393,28.033c-8.045,36.222-5.252,72.443,8.393,108.677c10.719,3.897,21.437,6.88,32.156,8.976
	C206.722,290.974,204.588,248.63,212.217,206.286z"/>
<g>
	<circle style="fill:#F95428;" cx="96.543" cy="203.327" r="31.174"/>
	<path style="fill:#F95428;" d="M124.714,281.262c10.923,0,19.783,8.849,19.783,19.783c0,10.923-8.861,19.783-19.783,19.783
		s-19.783-8.861-19.783-19.783C104.93,290.11,113.791,281.262,124.714,281.262z"/>
	<path style="fill:#F95428;" d="M271.172,255.855c10.923,0,19.783,8.861,19.783,19.783s-8.861,19.783-19.783,19.783
		c-10.935,0-19.783-8.861-19.783-19.783S260.237,255.855,271.172,255.855z"/>
	<path style="fill:#F95428;" d="M245.525,203.842c0,19.196-15.563,34.771-34.771,34.771c-0.827,0-1.643-0.024-2.458-0.084
		c-13.968-0.983-25.671-10.215-30.251-22.853c2.074-9.34,4.868-18.692,8.393-28.033c1.343-0.492,2.674-0.959,4.017-1.415
		c2.15-0.737,4.298-1.424,6.448-2.089c0.481-0.149,0.96-0.29,1.441-0.435c1.899-0.573,3.8-1.117,5.699-1.634
		c0.239-0.065,0.477-0.133,0.715-0.197c4.602-1.233,9.204-2.296,13.805-3.195c0.007-0.001,0.013-0.004,0.02-0.005l0,0
		c4.544-0.888,9.088-1.631,13.633-2.194v0.012C240.321,182.848,245.525,192.74,245.525,203.842z"/>
	<path style="fill:#F95428;" d="M423.133,174.803c10.923,0,19.783,8.861,19.783,19.783c0,10.935-8.861,19.783-19.783,19.783
		c-10.935,0-19.783-8.849-19.783-19.783C403.349,183.663,412.198,174.803,423.133,174.803z"/>
</g>
<path style="fill:#E54728;" d="M218.583,178.676c-2.59,9.208-4.712,18.417-6.367,27.613c-1.942,10.743-3.249,21.486-3.921,32.241
	c-13.968-0.983-25.671-10.215-30.251-22.853c2.074-9.34,4.868-18.692,8.393-28.033c1.343-0.492,2.674-0.959,4.017-1.415
	C199.831,183.016,209.207,180.51,218.583,178.676z"/>
<circle style="fill:#F95428;" cx="394.626" cy="292.856" r="31.174"/>
<g>
	<path style="fill:#F7B239;" d="M186.438,187.644c-3.525,9.34-6.319,18.692-8.393,28.033c-8.045,36.222-5.252,72.443,8.393,108.677
		c-1.355,1.091-108.174,87.251-152.261,46.749c-14.352-13.177-14.52-26.594-10.096-37.589c6.043-14.975,4.208-32.145-5.096-45.346
		c-5.635-7.997-9.988-18.584-9.988-32.169s4.352-24.172,9.988-32.169c9.304-13.201,11.139-30.371,5.096-45.346
		c-4.424-10.995-4.256-24.412,10.096-37.589C78.265,100.393,185.083,186.553,186.438,187.644z M144.497,301.045
		c0-10.935-8.861-19.783-19.783-19.783s-19.783,8.849-19.783,19.783c0,10.923,8.861,19.783,19.783,19.783
		S144.497,311.968,144.497,301.045z M127.711,203.327c0-17.218-13.956-31.174-31.174-31.174s-31.174,13.956-31.174,31.174
		s13.956,31.174,31.174,31.174S127.711,220.545,127.711,203.327z"/>
	<path style="fill:#F7B239;" d="M493.01,223.83c5.635,7.997,10,18.584,10,32.169s-4.364,24.172-10,32.169
		c-9.292,13.201-11.139,30.371-5.096,45.346c4.436,10.995,4.256,24.412-10.084,37.589c-44.087,40.502-150.906-45.658-152.261-46.749
		c17.158-45.574,17.158-91.136,0-136.71c1.355-1.091,108.174-87.251,152.261-46.749c14.34,13.177,14.52,26.594,10.084,37.589
		C481.872,193.459,483.718,210.629,493.01,223.83z M442.916,194.586c0-10.923-8.861-19.783-19.783-19.783
		c-10.935,0-19.783,8.861-19.783,19.783c0,10.935,8.849,19.783,19.783,19.783C434.055,214.37,442.916,205.521,442.916,194.586z
		 M425.806,292.856c0-17.218-13.956-31.174-31.174-31.174c-17.218,0-31.174,13.956-31.174,31.174s13.956,31.174,31.174,31.174
		C411.85,324.03,425.806,310.074,425.806,292.856z"/>
</g>
<g>
	<path style="fill:#333333;" d="M512,256c0-13.818-3.915-26.384-11.636-37.345c-7.433-10.555-9.008-24.66-4.109-36.809
		c6.873-17.047,2.49-33.941-12.341-47.57c-21.468-19.727-56.116-17.466-102.982,6.724c-25.995,13.417-48.235,29.766-57.036,36.533
		c-45.078-15.298-90.709-15.299-135.789,0c-8.802-6.767-31.042-23.117-57.036-36.533c-46.866-24.189-81.514-26.451-102.982-6.724
		c-14.832,13.629-19.215,30.524-12.341,47.57c4.898,12.149,3.324,26.253-4.109,36.808C3.915,229.617,0,242.182,0,256
		c0,13.818,3.915,26.384,11.636,37.346c7.434,10.555,9.008,24.659,4.109,36.808c-6.873,17.047-2.49,33.941,12.341,47.57
		c9.636,8.855,21.927,13.279,36.786,13.279c18.246,0,40.365-6.671,66.194-20.003c25.995-13.417,48.235-29.766,57.036-36.533
		c22.539,7.65,45.217,11.477,67.895,11.477s45.356-3.827,67.895-11.477c8.802,6.767,31.042,23.117,57.036,36.533
		c25.832,13.333,47.948,20.003,66.194,20.003c14.857,0,27.153-4.426,36.786-13.279c14.832-13.629,19.215-30.524,12.341-47.57
		c-4.898-12.149-3.324-26.253,4.109-36.808C508.085,282.385,512,269.82,512,256z M229.35,186.001
		c4.596,4.767,7.182,11.092,7.182,17.837c0,14.214-11.564,25.778-25.778,25.778c-9.977,0-19.029-5.819-23.271-14.699
		c1.592-6.744,3.567-13.479,5.945-20.201C205.367,190.637,217.35,187.736,229.35,186.001z M40.256,364.483
		c-9.439-8.672-11.926-17.444-7.831-27.602c7.265-18.019,4.989-38.164-6.086-53.89c-5.544-7.871-8.355-16.953-8.355-26.991
		c0-10.038,2.81-19.118,8.355-26.991c11.075-15.726,13.35-35.872,6.086-53.89c-4.097-10.158-1.608-18.93,7.831-27.602
		c29.969-27.539,103.691,18.686,135.534,43.19c-14.882,43.359-14.881,87.227,0.001,130.587
		C143.963,345.812,70.26,392.055,40.256,364.483z M193.426,317.283c-9.295-26.283-12.576-52.776-9.863-79.208
		c7.584,6.013,17.106,9.526,27.19,9.526c24.131,0,43.763-19.632,43.763-43.763c0-6.96-1.627-13.655-4.646-19.658
		c22.943-0.761,45.9,2.743,68.703,10.537c14.389,40.688,14.389,81.878,0,122.566C277.03,331.481,234.97,331.481,193.426,317.283z
		 M485.66,282.992c-11.075,15.725-13.35,35.87-6.086,53.889c4.097,10.158,1.608,18.93-7.831,27.602
		c-29.97,27.537-103.691-18.686-135.534-43.19c14.882-43.359,14.881-87.227-0.001-130.587
		c31.829-24.517,105.53-70.76,135.535-43.188c9.439,8.672,11.926,17.444,7.831,27.602c-7.265,18.019-4.989,38.164,6.086,53.89
		c5.544,7.871,8.355,16.951,8.355,26.989C494.015,266.038,491.205,275.119,485.66,282.992z"/>
	<path style="fill:#333333;" d="M136.704,203.323c0-22.148-18.019-40.166-40.166-40.166s-40.166,18.019-40.166,40.166
		s18.019,40.166,40.166,40.166S136.704,225.471,136.704,203.323z M74.356,203.323c0-12.231,9.95-22.181,22.181-22.181
		s22.181,9.95,22.181,22.181s-9.95,22.181-22.181,22.181S74.356,215.554,74.356,203.323z"/>
	<path style="fill:#333333;" d="M394.634,252.688c-22.148,0-40.166,18.019-40.166,40.166s18.019,40.166,40.166,40.166
		s40.166-18.019,40.166-40.166S416.781,252.688,394.634,252.688z M394.634,315.036c-12.231,0-22.181-9.95-22.181-22.181
		s9.951-22.181,22.181-22.181c12.231,0,22.181,9.951,22.181,22.181S406.863,315.036,394.634,315.036z"/>
	<path style="fill:#333333;" d="M124.714,272.266c-15.866,0-28.776,12.91-28.776,28.776c0,15.866,12.91,28.776,28.776,28.776
		s28.776-12.91,28.776-28.776C153.49,285.175,140.58,272.266,124.714,272.266z M124.714,311.833
		c-5.949,0-10.791-4.842-10.791-10.791c0-5.949,4.842-10.791,10.791-10.791s10.791,4.842,10.791,10.791
		C135.505,306.991,130.663,311.833,124.714,311.833z"/>
	<path style="fill:#333333;" d="M423.127,165.816c-15.866,0-28.776,12.91-28.776,28.776s12.91,28.776,28.776,28.776
		s28.776-12.91,28.776-28.776S438.994,165.816,423.127,165.816z M423.127,205.383c-5.949,0-10.791-4.842-10.791-10.791
		c0-5.949,4.842-10.791,10.791-10.791s10.791,4.842,10.791,10.791C433.918,200.542,429.077,205.383,423.127,205.383z"/>
	<path style="fill:#333333;" d="M271.166,246.864c-15.866,0-28.776,12.91-28.776,28.776c0,15.866,12.91,28.776,28.776,28.776
		c15.866,0,28.776-12.91,28.776-28.776C299.941,259.773,287.032,246.864,271.166,246.864z M271.166,286.431
		c-5.949,0-10.791-4.842-10.791-10.791s4.842-10.791,10.791-10.791s10.791,4.842,10.791,10.791S277.115,286.431,271.166,286.431z"/>
</g>
<g>
</g>
<g>
</g>
<g>
</g>
<g>
</g>
<g>
</g>
<g>
</g>
<g>
</g>
<g>
</g>
<g>
</g>
<g>
</g>
<g>
</g>
<g>
</g>
<g>
</g>
<g>
</g>
<g>
</g>
</svg>
