<svg xmlns="http://www.w3.org/2000/svg" xmlns:xlink="http://www.w3.org/1999/xlink" width="1299" height="101" viewBox="0 0 1299 101"><defs><style>.a{fill:url(#a);}.b,.n{fill:none;}.c{clip-path:url(#b);}.d,.f,.h,.k,.l{fill:#fff;}.d{opacity:0.004;}.e{opacity:0.45;}.f{fill-rule:evenodd;}.g{opacity:0.35;}.i{opacity:0.29;}.i,.p{mix-blend-mode:color-dodge;}.i,.k,.l,.m,.p{isolation:isolate;}.j{fill:#e29abb;}.k{opacity:0.8;}.k,.m{mix-blend-mode:overlay;}.l{mix-blend-mode:soft-light;}.m{opacity:0.5;}.n{stroke:#fff;stroke-miterlimit:10;stroke-width:30px;opacity:0.095;}.o{clip-path:url(#e);}.p{opacity:0.3;}.q{fill:url(#f);}.r{fill:url(#g);}.s{fill:url(#h);}.t{fill:url(#i);}.u{fill:url(#j);}.v{fill:url(#k);}.w{fill:url(#l);}.x{fill:url(#m);}.y{fill:url(#n);}.z{fill:url(#o);}.aa{clip-path:url(#p);}.ab{filter:url(#aa);}.ac{filter:url(#c);}</style><linearGradient id="a" x1="0.145" y1="0.155" x2="0.925" y2="0.828" gradientUnits="objectBoundingBox"><stop offset="0" stop-color="#fda940"/><stop offset="1" stop-color="#fe6489"/></linearGradient><clipPath id="b"><path class="a" d="M0,0H1299V101H0Z" transform="translate(67 94)"/></clipPath><filter id="c" x="706.67" y="-422.046" width="806.846" height="878.171" filterUnits="userSpaceOnUse"><feOffset dx="7" dy="7" input="SourceAlpha"/><feGaussianBlur stdDeviation="3.5" result="d"/><feFlood flood-opacity="0.149"/><feComposite operator="in" in2="d"/><feComposite in="SourceGraphic"/></filter><clipPath id="e"><rect class="b" width="291.887" height="132.537" transform="translate(0 206.395) rotate(-45)"/></clipPath><linearGradient id="f" x1="-1.252" y1="-10.157" x2="1.548" y2="6.074" gradientUnits="objectBoundingBox"><stop offset="0" stop-color="#4fa327"/><stop offset="0.163" stop-color="#3e801e"/><stop offset="0.445" stop-color="#234911"/><stop offset="0.689" stop-color="#102108"/><stop offset="0.882" stop-color="#040902"/><stop offset="1"/></linearGradient><linearGradient id="g" x1="-0.185" y1="-8.502" x2="1.122" y2="7.729" xlink:href="#f"/><linearGradient id="h" x1="0.012" y1="-7.675" x2="1.044" y2="8.557" xlink:href="#f"/><linearGradient id="i" x1="-1.122" y1="-2.245" x2="5.4" y2="10.8" xlink:href="#f"/><linearGradient id="j" x1="-0.524" y1="-9.329" x2="1.258" y2="6.902" xlink:href="#f"/><linearGradient id="k" x1="-0.025" y1="-5.519" x2="1.282" y2="10.711" xlink:href="#f"/><linearGradient id="l" x1="-3.914" y1="-8.828" x2="2.608" y2="4.217" xlink:href="#f"/><linearGradient id="m" x1="0.033" y1="-6.347" x2="1.065" y2="9.884" xlink:href="#f"/><linearGradient id="n" x1="-0.339" y1="-3.865" x2="2.46" y2="12.366" xlink:href="#f"/><linearGradient id="o" x1="-0.125" y1="-4.692" x2="1.657" y2="11.539" xlink:href="#f"/><clipPath id="p"><rect class="b" width="164.239" height="74.576" transform="translate(0 116.135) rotate(-45)"/></clipPath><filter id="aa" x="42.493" y="-242.413" width="413.676" height="343.905" filterUnits="userSpaceOnUse"><feOffset dx="7" dy="7" input="SourceAlpha"/><feGaussianBlur stdDeviation="3.5" result="ab"/><feFlood flood-opacity="0.149"/><feComposite operator="in" in2="ab"/><feComposite in="SourceGraphic"/></filter></defs><g transform="translate(-67 -94)"><g class="c"><g transform="translate(2471.002 -530.065) rotate(111)"><g class="ac" transform="matrix(-0.36, -0.93, 0.93, -0.36, 1444.13, 2020.68)"><path class="d" d="M178.3,413.765l449.87-449.87-124-124L-69.693,413.765Z" transform="translate(1321.57 -205.2) rotate(111)"/></g><g class="e" transform="translate(1038.206 621.2)"><path class="f" d="M426.2,106.843a2.056,2.056,0,1,0,0,2.908A2.056,2.056,0,0,0,426.2,106.843Z" transform="translate(-239.747 249.781)"/><path class="f" d="M416.942,116.082a2.056,2.056,0,1,0,0,2.909A2.056,2.056,0,0,0,416.942,116.082Z" transform="translate(-240.113 250.147)"/><path class="f" d="M407.684,125.322a2.056,2.056,0,1,0,0,2.908A2.057,2.057,0,0,0,407.684,125.322Z" transform="translate(-240.48 250.513)"/><path class="f" d="M398.426,134.562a2.056,2.056,0,1,0,0,2.908A2.055,2.055,0,0,0,398.426,134.562Z" transform="translate(-240.847 250.879)"/><path class="f" d="M389.167,143.8a2.057,2.057,0,1,0,0,2.909A2.056,2.056,0,0,0,389.167,143.8Z" transform="translate(-241.214 251.245)"/><path class="f" d="M379.909,153.041a2.056,2.056,0,1,0,0,2.908A2.056,2.056,0,0,0,379.909,153.041Z" transform="translate(-241.58 251.611)"/><path class="f" d="M370.651,162.28a2.057,2.057,0,1,0,0,2.909A2.057,2.057,0,0,0,370.651,162.28Z" transform="translate(-241.947 251.977)"/><path class="f" d="M361.392,171.52a2.056,2.056,0,1,0,0,2.908A2.057,2.057,0,0,0,361.392,171.52Z" transform="translate(-242.314 252.343)"/><path class="f" d="M352.134,180.76a2.056,2.056,0,1,0,0,2.908A2.055,2.055,0,0,0,352.134,180.76Z" transform="translate(-242.681 252.709)"/><path class="f" d="M342.875,190a2.057,2.057,0,1,0,0,2.908A2.057,2.057,0,0,0,342.875,190Z" transform="translate(-243.048 253.075)"/><path class="f" d="M333.617,199.239a2.056,2.056,0,1,0,0,2.908A2.056,2.056,0,0,0,333.617,199.239Z" transform="translate(-243.414 253.441)"/><path class="f" d="M324.359,208.478a2.057,2.057,0,1,0,0,2.909A2.057,2.057,0,0,0,324.359,208.478Z" transform="translate(-243.781 253.807)"/><path class="f" d="M315.1,217.718a2.056,2.056,0,1,0,0,2.908A2.057,2.057,0,0,0,315.1,217.718Z" transform="translate(-244.148 254.173)"/><path class="f" d="M305.842,226.957a2.057,2.057,0,1,0,0,2.909A2.056,2.056,0,0,0,305.842,226.957Z" transform="translate(-244.515 254.54)"/><path class="f" d="M296.583,236.2a2.056,2.056,0,1,0,0,2.909A2.057,2.057,0,0,0,296.583,236.2Z" transform="translate(-244.882 254.906)"/><path class="f" d="M287.325,245.437a2.056,2.056,0,1,0,0,2.908A2.056,2.056,0,0,0,287.325,245.437Z" transform="translate(-245.249 255.272)"/><path class="f" d="M592.852-59.47a2.056,2.056,0,0,0-2.908,0,2.055,2.055,0,0,0,0,2.908,2.056,2.056,0,0,0,2.908,0A2.057,2.057,0,0,0,592.852-59.47Z" transform="translate(-233.145 243.192)"/><path class="f" d="M583.594-50.23a2.058,2.058,0,0,0-2.909,0,2.057,2.057,0,0,0,0,2.908,2.056,2.056,0,0,0,2.909,0A2.057,2.057,0,0,0,583.594-50.23Z" transform="translate(-233.511 243.558)"/><path class="f" d="M574.335-40.99a2.056,2.056,0,0,0-2.908,0,2.057,2.057,0,0,0,0,2.908,2.056,2.056,0,0,0,2.908,0A2.055,2.055,0,0,0,574.335-40.99Z" transform="translate(-233.878 243.924)"/><path class="f" d="M565.077-31.751a2.057,2.057,0,0,0-2.908,0,2.055,2.055,0,0,0,0,2.909,2.057,2.057,0,0,0,2.908,0A2.058,2.058,0,0,0,565.077-31.751Z" transform="translate(-234.245 244.29)"/><path class="f" d="M555.817-22.511a2.055,2.055,0,0,0-2.907,0,2.057,2.057,0,0,0,0,2.908,2.056,2.056,0,0,0,2.909,0A2.055,2.055,0,0,0,555.817-22.511Z" transform="translate(-234.611 244.656)"/><path class="f" d="M546.56-13.272a2.056,2.056,0,0,0-2.908,0,2.056,2.056,0,0,0,0,2.908,2.057,2.057,0,0,0,2.908,0A2.058,2.058,0,0,0,546.56-13.272Z" transform="translate(-234.978 245.022)"/><path class="f" d="M537.3-4.032a2.058,2.058,0,0,0-2.908,0,2.057,2.057,0,0,0,0,2.908,2.056,2.056,0,0,0,2.908,0A2.056,2.056,0,0,0,537.3-4.032Z" transform="translate(-235.345 245.388)"/><path class="f" d="M528.043,5.208a2.056,2.056,0,1,0,0,2.908A2.055,2.055,0,0,0,528.043,5.208Z" transform="translate(-235.712 245.754)"/><path class="f" d="M518.785,14.447a2.056,2.056,0,1,0,0,2.909A2.056,2.056,0,0,0,518.785,14.447Z" transform="translate(-236.079 246.12)"/><path class="f" d="M509.526,23.687a2.056,2.056,0,1,0,0,2.908A2.056,2.056,0,0,0,509.526,23.687Z" transform="translate(-236.445 246.486)"/><path class="f" d="M500.268,32.926a2.057,2.057,0,1,0,0,2.909A2.056,2.056,0,0,0,500.268,32.926Z" transform="translate(-236.812 246.852)"/><path class="f" d="M491.01,42.166a2.056,2.056,0,1,0,0,2.908A2.057,2.057,0,0,0,491.01,42.166Z" transform="translate(-237.179 247.219)"/><path class="f" d="M481.751,51.406a2.056,2.056,0,1,0,0,2.908A2.056,2.056,0,0,0,481.751,51.406Z" transform="translate(-237.546 247.585)"/><path class="f" d="M472.493,60.645a2.056,2.056,0,1,0,0,2.908A2.057,2.057,0,0,0,472.493,60.645Z" transform="translate(-237.913 247.951)"/><path class="f" d="M463.234,69.885a2.056,2.056,0,1,0,0,2.908A2.056,2.056,0,0,0,463.234,69.885Z" transform="translate(-238.279 248.317)"/><path class="f" d="M453.976,79.124a2.056,2.056,0,1,0,0,2.909A2.056,2.056,0,0,0,453.976,79.124Z" transform="translate(-238.646 248.683)"/><path class="f" d="M444.717,88.364a2.056,2.056,0,1,0,0,2.908A2.056,2.056,0,0,0,444.717,88.364Z" transform="translate(-239.013 249.049)"/><path class="f" d="M435.459,97.6a2.057,2.057,0,1,0,0,2.909A2.056,2.056,0,0,0,435.459,97.6Z" transform="translate(-239.379 249.415)"/><path class="f" d="M750.245-216.542a2.057,2.057,0,0,0-2.909,0,2.057,2.057,0,0,0,0,2.908,2.057,2.057,0,0,0,2.908,0A2.057,2.057,0,0,0,750.245-216.542Z" transform="translate(-226.909 236.969)"/><path class="f" d="M740.986-207.3a2.056,2.056,0,0,0-2.908,0,2.057,2.057,0,0,0,0,2.908,2.058,2.058,0,0,0,2.909,0A2.057,2.057,0,0,0,740.986-207.3Z" transform="translate(-227.276 237.335)"/><path class="f" d="M731.728-198.063a2.056,2.056,0,0,0-2.908,0,2.055,2.055,0,0,0,0,2.908,2.056,2.056,0,0,0,2.908,0A2.056,2.056,0,0,0,731.728-198.063Z" transform="translate(-227.642 237.701)"/><path class="f" d="M722.469-188.824a2.056,2.056,0,0,0-2.908,0,2.057,2.057,0,0,0,0,2.908,2.059,2.059,0,0,0,2.909,0A2.057,2.057,0,0,0,722.469-188.824Z" transform="translate(-228.009 238.067)"/><path class="f" d="M713.211-179.584a2.057,2.057,0,0,0-2.908,0,2.056,2.056,0,0,0,0,2.908,2.055,2.055,0,0,0,2.908,0A2.055,2.055,0,0,0,713.211-179.584Z" transform="translate(-228.376 238.433)"/><path class="f" d="M703.953-170.345a2.057,2.057,0,0,0-2.909,0,2.055,2.055,0,0,0,0,2.908,2.056,2.056,0,0,0,2.908,0A2.058,2.058,0,0,0,703.953-170.345Z" transform="translate(-228.742 238.8)"/><path class="f" d="M694.694-161.1a2.056,2.056,0,0,0-2.908,0,2.056,2.056,0,0,0,0,2.907,2.056,2.056,0,0,0,2.908,0A2.056,2.056,0,0,0,694.694-161.1Z" transform="translate(-229.11 239.165)"/><path class="f" d="M685.436-151.865a2.056,2.056,0,0,0-2.908,0,2.055,2.055,0,0,0,0,2.908,2.056,2.056,0,0,0,2.909,0A2.057,2.057,0,0,0,685.436-151.865Z" transform="translate(-229.477 239.532)"/><path class="f" d="M676.177-142.626a2.057,2.057,0,0,0-2.908,0,2.059,2.059,0,0,0,0,2.909,2.058,2.058,0,0,0,2.909,0A2.057,2.057,0,0,0,676.177-142.626Z" transform="translate(-229.843 239.897)"/><path class="f" d="M666.919-133.386a2.057,2.057,0,0,0-2.908,0,2.057,2.057,0,0,0,0,2.908,2.055,2.055,0,0,0,2.908,0A2.054,2.054,0,0,0,666.919-133.386Z" transform="translate(-230.21 240.264)"/><path class="f" d="M657.661-124.147a2.057,2.057,0,0,0-2.909,0,2.057,2.057,0,0,0,0,2.908,2.057,2.057,0,0,0,2.909,0A2.058,2.058,0,0,0,657.661-124.147Z" transform="translate(-230.576 240.63)"/><path class="f" d="M648.4-114.907a2.057,2.057,0,0,0-2.908,0,2.058,2.058,0,0,0,0,2.908,2.056,2.056,0,0,0,2.909,0A2.055,2.055,0,0,0,648.4-114.907Z" transform="translate(-230.944 240.996)"/><path class="f" d="M639.144-105.667a2.057,2.057,0,0,0-2.908,0,2.056,2.056,0,0,0,0,2.908,2.056,2.056,0,0,0,2.908,0A2.057,2.057,0,0,0,639.144-105.667Z" transform="translate(-231.31 241.362)"/><path class="f" d="M629.885-96.428a2.057,2.057,0,0,0-2.909,0,2.058,2.058,0,0,0,0,2.908,2.058,2.058,0,0,0,2.909,0A2.056,2.056,0,0,0,629.885-96.428Z" transform="translate(-231.677 241.728)"/><path class="f" d="M620.627-87.188a2.057,2.057,0,0,0-2.909,0,2.056,2.056,0,0,0,0,2.908,2.055,2.055,0,0,0,2.908,0A2.056,2.056,0,0,0,620.627-87.188Z" transform="translate(-232.044 242.094)"/><path class="f" d="M611.368-77.949a2.056,2.056,0,0,0-2.908,0,2.056,2.056,0,0,0,0,2.908,2.056,2.056,0,0,0,2.908,0A2.057,2.057,0,0,0,611.368-77.949Z" transform="translate(-232.41 242.46)"/><path class="f" d="M602.11-68.709a2.056,2.056,0,0,0-2.907,0,2.056,2.056,0,0,0,0,2.908,2.055,2.055,0,0,0,2.908,0A2.055,2.055,0,0,0,602.11-68.709Z" transform="translate(-232.778 242.826)"/><path class="f" d="M416.873,97.515a2.056,2.056,0,1,0,0,2.908A2.057,2.057,0,0,0,416.873,97.515Z" transform="translate(-240.116 249.411)"/><path class="f" d="M407.624,106.764a2.056,2.056,0,1,0,0,2.908A2.056,2.056,0,0,0,407.624,106.764Z" transform="translate(-240.482 249.778)"/><path class="f" d="M398.375,116.013a2.056,2.056,0,1,0,0,2.908A2.056,2.056,0,0,0,398.375,116.013Z" transform="translate(-240.849 250.144)"/><path class="f" d="M389.126,125.262a2.056,2.056,0,1,0,0,2.908A2.056,2.056,0,0,0,389.126,125.262Z" transform="translate(-241.215 250.511)"/><path class="f" d="M379.877,134.511a2.056,2.056,0,1,0,0,2.908A2.057,2.057,0,0,0,379.877,134.511Z" transform="translate(-241.582 250.877)"/><path class="f" d="M370.628,143.76a2.056,2.056,0,1,0,0,2.908A2.056,2.056,0,0,0,370.628,143.76Z" transform="translate(-241.948 251.243)"/><path class="f" d="M361.379,153.009a2.056,2.056,0,1,0,0,2.908A2.056,2.056,0,0,0,361.379,153.009Z" transform="translate(-242.315 251.61)"/><path class="f" d="M352.13,162.258a2.056,2.056,0,1,0,0,2.908A2.056,2.056,0,0,0,352.13,162.258Z" transform="translate(-242.681 251.976)"/><path class="f" d="M342.881,171.507a2.056,2.056,0,1,0,0,2.908A2.056,2.056,0,0,0,342.881,171.507Z" transform="translate(-243.047 252.343)"/><path class="f" d="M333.632,180.756a2.056,2.056,0,1,0,0,2.908A2.056,2.056,0,0,0,333.632,180.756Z" transform="translate(-243.414 252.709)"/><path class="f" d="M324.383,190a2.056,2.056,0,1,0,0,2.908A2.056,2.056,0,0,0,324.383,190Z" transform="translate(-243.78 253.076)"/><path class="f" d="M315.134,199.254a2.056,2.056,0,1,0,0,2.908A2.055,2.055,0,0,0,315.134,199.254Z" transform="translate(-244.147 253.442)"/><path class="f" d="M305.885,208.5a2.056,2.056,0,1,0,0,2.908A2.055,2.055,0,0,0,305.885,208.5Z" transform="translate(-244.513 253.808)"/><path class="f" d="M296.636,217.752a2.056,2.056,0,1,0,0,2.908A2.056,2.056,0,0,0,296.636,217.752Z" transform="translate(-244.879 254.175)"/><path class="f" d="M287.387,227a2.056,2.056,0,1,0,0,2.908A2.056,2.056,0,0,0,287.387,227Z" transform="translate(-245.246 254.541)"/><path class="f" d="M278.138,236.25a2.056,2.056,0,1,0,0,2.908A2.056,2.056,0,0,0,278.138,236.25Z" transform="translate(-245.612 254.908)"/><path class="f" d="M268.889,245.5a2.056,2.056,0,1,0,0,2.908A2.056,2.056,0,0,0,268.889,245.5Z" transform="translate(-245.979 255.274)"/><path class="f" d="M583.355-68.967a2.057,2.057,0,0,0-2.909,0,2.057,2.057,0,0,0,0,2.908,2.056,2.056,0,0,0,2.908,0A2.057,2.057,0,0,0,583.355-68.967Z" transform="translate(-233.52 242.816)"/><path class="f" d="M574.106-59.718a2.057,2.057,0,0,0-2.909,0,2.056,2.056,0,0,0,0,2.908,2.055,2.055,0,0,0,2.908,0A2.058,2.058,0,0,0,574.106-59.718Z" transform="translate(-233.887 243.182)"/><path class="f" d="M564.857-50.469a2.058,2.058,0,0,0-2.909,0,2.056,2.056,0,0,0,0,2.908,2.055,2.055,0,0,0,2.908,0A2.056,2.056,0,0,0,564.857-50.469Z" transform="translate(-234.254 243.549)"/><path class="f" d="M555.608-41.22a2.057,2.057,0,0,0-2.909,0,2.055,2.055,0,0,0,0,2.908,2.056,2.056,0,0,0,2.908,0A2.057,2.057,0,0,0,555.608-41.22Z" transform="translate(-234.619 243.915)"/><path class="f" d="M546.359-31.971a2.057,2.057,0,0,0-2.909,0,2.057,2.057,0,0,0,0,2.908,2.056,2.056,0,0,0,2.909,0A2.057,2.057,0,0,0,546.359-31.971Z" transform="translate(-234.986 244.281)"/><path class="f" d="M537.11-22.722a2.057,2.057,0,0,0-2.909,0,2.055,2.055,0,0,0,0,2.908,2.055,2.055,0,0,0,2.908,0A2.057,2.057,0,0,0,537.11-22.722Z" transform="translate(-235.352 244.648)"/><path class="f" d="M527.861-13.473a2.058,2.058,0,0,0-2.909,0,2.056,2.056,0,0,0,0,2.908,2.054,2.054,0,0,0,2.907,0A2.057,2.057,0,0,0,527.861-13.473Z" transform="translate(-235.719 245.014)"/><path class="f" d="M518.612-4.224a2.057,2.057,0,0,0-2.909,0,2.057,2.057,0,0,0,0,2.908,2.055,2.055,0,0,0,2.908,0A2.056,2.056,0,0,0,518.612-4.224Z" transform="translate(-236.085 245.381)"/><path class="f" d="M509.363,5.025a2.056,2.056,0,1,0,0,2.908A2.057,2.057,0,0,0,509.363,5.025Z" transform="translate(-236.452 245.747)"/><path class="f" d="M500.114,14.274a2.056,2.056,0,1,0,0,2.908A2.057,2.057,0,0,0,500.114,14.274Z" transform="translate(-236.818 246.114)"/><path class="f" d="M490.865,23.523a2.056,2.056,0,1,0,0,2.908A2.058,2.058,0,0,0,490.865,23.523Z" transform="translate(-237.184 246.48)"/><path class="f" d="M481.616,32.772a2.056,2.056,0,1,0,0,2.908A2.057,2.057,0,0,0,481.616,32.772Z" transform="translate(-237.551 246.846)"/><path class="f" d="M472.367,42.021a2.056,2.056,0,1,0,0,2.908A2.057,2.057,0,0,0,472.367,42.021Z" transform="translate(-237.918 247.213)"/><path class="f" d="M463.118,51.27a2.056,2.056,0,1,0,0,2.908A2.056,2.056,0,0,0,463.118,51.27Z" transform="translate(-238.284 247.579)"/><path class="f" d="M453.869,60.519a2.056,2.056,0,1,0,0,2.908A2.057,2.057,0,0,0,453.869,60.519Z" transform="translate(-238.65 247.946)"/><path class="f" d="M444.62,69.768a2.056,2.056,0,1,0,0,2.908A2.057,2.057,0,0,0,444.62,69.768Z" transform="translate(-239.017 248.312)"/><path class="f" d="M435.371,79.017a2.056,2.056,0,1,0,0,2.908A2.057,2.057,0,0,0,435.371,79.017Z" transform="translate(-239.383 248.679)"/><path class="f" d="M426.122,88.266a2.056,2.056,0,1,0,0,2.908A2.058,2.058,0,0,0,426.122,88.266Z" transform="translate(-239.749 249.045)"/><path class="f" d="M749.836-235.449a2.057,2.057,0,0,0-2.908,0,2.057,2.057,0,0,0,0,2.908,2.055,2.055,0,0,0,2.908,0A2.055,2.055,0,0,0,749.836-235.449Z" transform="translate(-226.925 236.22)"/><path class="f" d="M740.588-226.2a2.058,2.058,0,0,0-2.909,0,2.057,2.057,0,0,0,0,2.908,2.057,2.057,0,0,0,2.909,0A2.057,2.057,0,0,0,740.588-226.2Z" transform="translate(-227.291 236.587)"/><path class="f" d="M731.339-216.951a2.058,2.058,0,0,0-2.908,0,2.057,2.057,0,0,0,0,2.908,2.055,2.055,0,0,0,2.908,0A2.056,2.056,0,0,0,731.339-216.951Z" transform="translate(-227.658 236.953)"/><path class="f" d="M722.09-207.7a2.059,2.059,0,0,0-2.91,0,2.056,2.056,0,0,0,0,2.908,2.055,2.055,0,0,0,2.908,0A2.058,2.058,0,0,0,722.09-207.7Z" transform="translate(-228.024 237.32)"/><path class="f" d="M712.84-198.453a2.057,2.057,0,0,0-2.909,0,2.059,2.059,0,0,0,0,2.909,2.056,2.056,0,0,0,2.908,0A2.055,2.055,0,0,0,712.84-198.453Z" transform="translate(-228.391 237.686)"/><path class="f" d="M703.592-189.2a2.058,2.058,0,0,0-2.908,0,2.056,2.056,0,0,0,0,2.908,2.056,2.056,0,0,0,2.908,0A2.057,2.057,0,0,0,703.592-189.2Z" transform="translate(-228.757 238.052)"/><path class="f" d="M694.343-179.955a2.059,2.059,0,0,0-2.909,0,2.057,2.057,0,0,0,0,2.908,2.055,2.055,0,0,0,2.908,0A2.056,2.056,0,0,0,694.343-179.955Z" transform="translate(-229.124 238.419)"/><path class="f" d="M685.093-170.706a2.058,2.058,0,0,0-2.908,0,2.057,2.057,0,0,0,0,2.908,2.054,2.054,0,0,0,2.907,0A2.055,2.055,0,0,0,685.093-170.706Z" transform="translate(-229.49 238.785)"/><path class="f" d="M675.845-161.457a2.058,2.058,0,0,0-2.909,0,2.057,2.057,0,0,0,0,2.908,2.056,2.056,0,0,0,2.909,0A2.057,2.057,0,0,0,675.845-161.457Z" transform="translate(-229.856 239.152)"/><path class="f" d="M666.6-152.208a2.058,2.058,0,0,0-2.909,0,2.056,2.056,0,0,0,0,2.908,2.056,2.056,0,0,0,2.909,0A2.057,2.057,0,0,0,666.6-152.208Z" transform="translate(-230.222 239.518)"/><path class="f" d="M657.347-142.959a2.058,2.058,0,0,0-2.909,0,2.056,2.056,0,0,0,0,2.908,2.055,2.055,0,0,0,2.908,0A2.057,2.057,0,0,0,657.347-142.959Z" transform="translate(-230.589 239.884)"/><path class="f" d="M648.1-133.71a2.058,2.058,0,0,0-2.909,0,2.057,2.057,0,0,0,0,2.908,2.055,2.055,0,0,0,2.908,0A2.055,2.055,0,0,0,648.1-133.71Z" transform="translate(-230.956 240.251)"/><path class="f" d="M638.849-124.461a2.059,2.059,0,0,0-2.909,0,2.058,2.058,0,0,0,0,2.908,2.057,2.057,0,0,0,2.909,0A2.058,2.058,0,0,0,638.849-124.461Z" transform="translate(-231.322 240.617)"/><path class="f" d="M629.6-115.212a2.059,2.059,0,0,0-2.91,0,2.057,2.057,0,0,0,0,2.908,2.055,2.055,0,0,0,2.908,0A2.058,2.058,0,0,0,629.6-115.212Z" transform="translate(-231.688 240.984)"/><path class="f" d="M620.351-105.963a2.058,2.058,0,0,0-2.909,0,2.058,2.058,0,0,0,0,2.909,2.056,2.056,0,0,0,2.908,0A2.057,2.057,0,0,0,620.351-105.963Z" transform="translate(-232.054 241.35)"/><path class="f" d="M611.1-96.714a2.057,2.057,0,0,0-2.909,0,2.058,2.058,0,0,0,0,2.908,2.055,2.055,0,0,0,2.908,0A2.056,2.056,0,0,0,611.1-96.714Z" transform="translate(-232.421 241.717)"/><path class="f" d="M601.853-87.465a2.058,2.058,0,0,0-2.909,0,2.056,2.056,0,0,0,0,2.908,2.055,2.055,0,0,0,2.908,0A2.057,2.057,0,0,0,601.853-87.465Z" transform="translate(-232.787 242.083)"/><path class="f" d="M592.6-78.216a2.058,2.058,0,0,0-2.909,0,2.055,2.055,0,0,0,0,2.908,2.055,2.055,0,0,0,2.908,0A2.057,2.057,0,0,0,592.6-78.216Z" transform="translate(-233.154 242.449)"/><path class="f" d="M407.462,88.1a2.057,2.057,0,1,0,0,2.909A2.057,2.057,0,0,0,407.462,88.1Z" transform="translate(-240.489 249.039)"/><path class="f" d="M398.213,97.352a2.057,2.057,0,1,0,0,2.909A2.058,2.058,0,0,0,398.213,97.352Z" transform="translate(-240.855 249.405)"/><path class="f" d="M388.963,106.6a2.056,2.056,0,1,0,0,2.908A2.056,2.056,0,0,0,388.963,106.6Z" transform="translate(-241.222 249.771)"/><path class="f" d="M379.715,115.85a2.057,2.057,0,1,0,0,2.909A2.059,2.059,0,0,0,379.715,115.85Z" transform="translate(-241.588 250.138)"/><path class="f" d="M370.465,125.1a2.056,2.056,0,1,0,0,2.908A2.055,2.055,0,0,0,370.465,125.1Z" transform="translate(-241.955 250.504)"/><path class="f" d="M361.216,134.349a2.056,2.056,0,1,0,0,2.908A2.056,2.056,0,0,0,361.216,134.349Z" transform="translate(-242.321 250.871)"/><path class="f" d="M351.968,143.6a2.057,2.057,0,1,0,0,2.909A2.057,2.057,0,0,0,351.968,143.6Z" transform="translate(-242.687 251.237)"/><path class="f" d="M342.719,152.846a2.057,2.057,0,1,0,0,2.909A2.057,2.057,0,0,0,342.719,152.846Z" transform="translate(-243.054 251.604)"/><path class="f" d="M333.47,162.095a2.057,2.057,0,1,0,0,2.909A2.058,2.058,0,0,0,333.47,162.095Z" transform="translate(-243.42 251.97)"/><path class="f" d="M324.221,171.344a2.057,2.057,0,1,0,0,2.909A2.057,2.057,0,0,0,324.221,171.344Z" transform="translate(-243.787 252.336)"/><path class="f" d="M314.972,180.593a2.057,2.057,0,1,0,0,2.909A2.058,2.058,0,0,0,314.972,180.593Z" transform="translate(-244.153 252.703)"/><path class="f" d="M305.723,189.842a2.057,2.057,0,1,0,0,2.909A2.057,2.057,0,0,0,305.723,189.842Z" transform="translate(-244.519 253.069)"/><path class="f" d="M296.473,199.092a2.056,2.056,0,1,0,0,2.908A2.056,2.056,0,0,0,296.473,199.092Z" transform="translate(-244.886 253.436)"/><path class="f" d="M287.225,208.34a2.057,2.057,0,1,0,0,2.909A2.058,2.058,0,0,0,287.225,208.34Z" transform="translate(-245.252 253.802)"/><path class="f" d="M277.975,217.59a2.056,2.056,0,1,0,0,2.908A2.055,2.055,0,0,0,277.975,217.59Z" transform="translate(-245.619 254.168)"/><path class="f" d="M268.726,226.839a2.056,2.056,0,1,0,0,2.908A2.055,2.055,0,0,0,268.726,226.839Z" transform="translate(-245.985 254.535)"/><path class="f" d="M259.478,236.087a2.057,2.057,0,1,0,0,2.909A2.058,2.058,0,0,0,259.478,236.087Z" transform="translate(-246.352 254.901)"/><path class="f" d="M250.229,245.336a2.057,2.057,0,1,0,0,2.909A2.058,2.058,0,0,0,250.229,245.336Z" transform="translate(-246.718 255.268)"/><path class="f" d="M573.942-78.378a2.055,2.055,0,0,0-2.908,0,2.057,2.057,0,0,0,0,2.908,2.057,2.057,0,0,0,2.908,0A2.056,2.056,0,0,0,573.942-78.378Z" transform="translate(-233.893 242.443)"/><path class="f" d="M564.693-69.129a2.054,2.054,0,0,0-2.907,0,2.057,2.057,0,0,0,0,2.908,2.058,2.058,0,0,0,2.909,0A2.055,2.055,0,0,0,564.693-69.129Z" transform="translate(-234.26 242.809)"/><path class="f" d="M555.445-59.88a2.055,2.055,0,0,0-2.908,0,2.057,2.057,0,0,0,0,2.908,2.058,2.058,0,0,0,2.909,0A2.056,2.056,0,0,0,555.445-59.88Z" transform="translate(-234.626 243.176)"/><path class="f" d="M546.2-50.631a2.055,2.055,0,0,0-2.908,0,2.057,2.057,0,0,0,0,2.908,2.057,2.057,0,0,0,2.909,0A2.055,2.055,0,0,0,546.2-50.631Z" transform="translate(-234.993 243.542)"/><path class="f" d="M536.947-41.382a2.055,2.055,0,0,0-2.908,0,2.057,2.057,0,0,0,0,2.908,2.057,2.057,0,0,0,2.908,0A2.055,2.055,0,0,0,536.947-41.382Z" transform="translate(-235.359 243.909)"/><path class="f" d="M527.7-32.133a2.055,2.055,0,0,0-2.908,0,2.056,2.056,0,0,0,0,2.908,2.058,2.058,0,0,0,2.909,0A2.056,2.056,0,0,0,527.7-32.133Z" transform="translate(-235.725 244.275)"/><path class="f" d="M518.448-22.884a2.054,2.054,0,0,0-2.907,0,2.056,2.056,0,0,0,0,2.908,2.055,2.055,0,0,0,2.907,0A2.055,2.055,0,0,0,518.448-22.884Z" transform="translate(-236.092 244.641)"/><path class="f" d="M509.2-13.635a2.055,2.055,0,0,0-2.908,0,2.057,2.057,0,0,0,0,2.908,2.057,2.057,0,0,0,2.908,0A2.054,2.054,0,0,0,509.2-13.635Z" transform="translate(-236.458 245.008)"/><path class="f" d="M499.951-4.386a2.055,2.055,0,0,0-2.908,0,2.056,2.056,0,0,0,0,2.908,2.058,2.058,0,0,0,2.909,0A2.056,2.056,0,0,0,499.951-4.386Z" transform="translate(-236.825 245.374)"/><path class="f" d="M490.7,4.863a2.056,2.056,0,1,0,0,2.908A2.056,2.056,0,0,0,490.7,4.863Z" transform="translate(-237.191 245.741)"/><path class="f" d="M481.453,14.112a2.056,2.056,0,1,0,0,2.908A2.055,2.055,0,0,0,481.453,14.112Z" transform="translate(-237.557 246.107)"/><path class="f" d="M472.2,23.361a2.056,2.056,0,1,0,0,2.908A2.055,2.055,0,0,0,472.2,23.361Z" transform="translate(-237.924 246.474)"/><path class="f" d="M462.955,32.61a2.056,2.056,0,1,0,0,2.908A2.055,2.055,0,0,0,462.955,32.61Z" transform="translate(-238.29 246.84)"/><path class="f" d="M453.705,41.859a2.056,2.056,0,1,0,0,2.908A2.055,2.055,0,0,0,453.705,41.859Z" transform="translate(-238.657 247.206)"/><path class="f" d="M444.457,51.108a2.056,2.056,0,1,0,0,2.908A2.055,2.055,0,0,0,444.457,51.108Z" transform="translate(-239.023 247.573)"/><path class="f" d="M435.208,60.357a2.056,2.056,0,1,0,0,2.908A2.055,2.055,0,0,0,435.208,60.357Z" transform="translate(-239.39 247.939)"/><path class="f" d="M425.959,69.606a2.056,2.056,0,1,0,0,2.908A2.055,2.055,0,0,0,425.959,69.606Z" transform="translate(-239.756 248.306)"/><path class="f" d="M416.711,78.854a2.057,2.057,0,1,0,0,2.909A2.057,2.057,0,0,0,416.711,78.854Z" transform="translate(-240.122 248.672)"/><path class="f" d="M731.176-235.611a2.055,2.055,0,0,0-2.908,0,2.057,2.057,0,0,0,0,2.908,2.056,2.056,0,0,0,2.908,0A2.055,2.055,0,0,0,731.176-235.611Z" transform="translate(-227.664 236.214)"/><path class="f" d="M721.927-226.362a2.055,2.055,0,0,0-2.908,0,2.056,2.056,0,0,0,0,2.908,2.056,2.056,0,0,0,2.908,0A2.056,2.056,0,0,0,721.927-226.362Z" transform="translate(-228.031 236.58)"/><path class="f" d="M712.678-217.113a2.055,2.055,0,0,0-2.908,0,2.056,2.056,0,0,0,0,2.908,2.056,2.056,0,0,0,2.908,0A2.054,2.054,0,0,0,712.678-217.113Z" transform="translate(-228.397 236.947)"/><path class="f" d="M703.429-207.864a2.055,2.055,0,0,0-2.908,0,2.056,2.056,0,0,0,0,2.908,2.055,2.055,0,0,0,2.908,0A2.055,2.055,0,0,0,703.429-207.864Z" transform="translate(-228.763 237.313)"/><path class="f" d="M694.18-198.615a2.056,2.056,0,0,0-2.909,0,2.058,2.058,0,0,0,0,2.908,2.057,2.057,0,0,0,2.909,0A2.056,2.056,0,0,0,694.18-198.615Z" transform="translate(-229.13 237.679)"/><path class="f" d="M684.931-189.366a2.056,2.056,0,0,0-2.908,0,2.056,2.056,0,0,0,0,2.908,2.056,2.056,0,0,0,2.908,0A2.056,2.056,0,0,0,684.931-189.366Z" transform="translate(-229.496 238.046)"/><path class="f" d="M675.682-180.117a2.055,2.055,0,0,0-2.908,0,2.057,2.057,0,0,0,0,2.908,2.056,2.056,0,0,0,2.908,0A2.055,2.055,0,0,0,675.682-180.117Z" transform="translate(-229.863 238.412)"/><path class="f" d="M666.433-170.868a2.055,2.055,0,0,0-2.908,0,2.057,2.057,0,0,0,0,2.908,2.056,2.056,0,0,0,2.908,0A2.054,2.054,0,0,0,666.433-170.868Z" transform="translate(-230.229 238.779)"/><path class="f" d="M657.184-161.619a2.056,2.056,0,0,0-2.908,0,2.056,2.056,0,0,0,0,2.908,2.057,2.057,0,0,0,2.909,0A2.057,2.057,0,0,0,657.184-161.619Z" transform="translate(-230.595 239.145)"/><path class="f" d="M647.935-152.37a2.055,2.055,0,0,0-2.908,0,2.056,2.056,0,0,0,0,2.908,2.056,2.056,0,0,0,2.908,0A2.055,2.055,0,0,0,647.935-152.37Z" transform="translate(-230.962 239.512)"/><path class="f" d="M638.686-143.121a2.055,2.055,0,0,0-2.908,0,2.056,2.056,0,0,0,0,2.908,2.056,2.056,0,0,0,2.908,0A2.054,2.054,0,0,0,638.686-143.121Z" transform="translate(-231.328 239.878)"/><path class="f" d="M629.437-133.872a2.055,2.055,0,0,0-2.908,0,2.058,2.058,0,0,0,0,2.908,2.057,2.057,0,0,0,2.908,0A2.055,2.055,0,0,0,629.437-133.872Z" transform="translate(-231.694 240.244)"/><path class="f" d="M620.188-124.623a2.056,2.056,0,0,0-2.908,0,2.057,2.057,0,0,0,0,2.908,2.056,2.056,0,0,0,2.908,0A2.056,2.056,0,0,0,620.188-124.623Z" transform="translate(-232.061 240.611)"/><path class="f" d="M610.939-115.374a2.055,2.055,0,0,0-2.908,0,2.054,2.054,0,0,0,0,2.908,2.056,2.056,0,0,0,2.908,0A2.056,2.056,0,0,0,610.939-115.374Z" transform="translate(-232.427 240.977)"/><path class="f" d="M601.69-106.125a2.055,2.055,0,0,0-2.908,0,2.056,2.056,0,0,0,0,2.908,2.056,2.056,0,0,0,2.908,0A2.056,2.056,0,0,0,601.69-106.125Z" transform="translate(-232.794 241.344)"/><path class="f" d="M592.441-96.876a2.055,2.055,0,0,0-2.908,0,2.057,2.057,0,0,0,0,2.908,2.056,2.056,0,0,0,2.908,0A2.055,2.055,0,0,0,592.441-96.876Z" transform="translate(-233.16 241.71)"/><path class="f" d="M583.191-87.627a2.055,2.055,0,0,0-2.907,0,2.057,2.057,0,0,0,0,2.908,2.055,2.055,0,0,0,2.907,0A2.054,2.054,0,0,0,583.191-87.627Z" transform="translate(-233.527 242.077)"/></g><g class="g" transform="translate(664.022 926.819)"><g transform="translate(52.802)"><path class="h" d="M260.252,57.76-61.675,379.687h-.74L259.512,57.76Z" transform="translate(62.415 -57.76)"/></g><g transform="translate(46.935)"><path class="h" d="M254.608,57.76-67.324,379.687h-.734L253.874,57.76Z" transform="translate(68.058 -57.76)"/></g><g transform="translate(41.074)"><path class="h" d="M248.959,57.76-72.962,379.687H-73.7L248.231,57.76Z" transform="translate(73.696 -57.76)"/></g><g transform="translate(35.201)"><path class="h" d="M243.322,57.76-78.605,379.687h-.74L242.582,57.76Z" transform="translate(79.345 -57.76)"/></g><g transform="translate(29.34)"><path class="h" d="M237.672,57.76-84.255,379.687h-.728L236.944,57.76Z" transform="translate(84.983 -57.76)"/></g><g transform="translate(23.474)"><path class="h" d="M232.029,57.76-89.9,379.687h-.728L231.3,57.76Z" transform="translate(90.626 -57.76)"/></g><g transform="translate(17.601)"><path class="h" d="M226.392,57.76-95.535,379.687h-.74L225.652,57.76Z" transform="translate(96.275 -57.76)"/></g><g transform="translate(11.734)"><path class="h" d="M220.742,57.76-101.184,379.687h-.734L220.014,57.76Z" transform="translate(101.918 -57.76)"/></g><g transform="translate(5.873)"><path class="h" d="M215.1,57.76-106.822,379.687h-.734L214.365,57.76Z" transform="translate(107.556 -57.76)"/></g><path class="h" d="M209.462,57.76-112.465,379.687h-.74L208.722,57.76Z" transform="translate(113.205 -57.76)"/></g><g class="i" transform="translate(769.113 1126.805)"><g transform="translate(0 24.451)"><path class="j" d="M432.833,273.913a.926.926,0,0,1,0,1.31L-10.537,718.592a.925.925,0,0,1-1.309,0,.925.925,0,0,1,0-1.309l443.37-443.37A.927.927,0,0,1,432.833,273.913Z" transform="translate(12.117 -273.643)"/></g><g transform="translate(446.411)"><path class="j" d="M436.767,253.462a11.417,11.417,0,1,1-16.146,0A11.43,11.43,0,0,1,436.767,253.462ZM421.931,268.3a9.565,9.565,0,1,0,0-13.527A9.574,9.574,0,0,0,421.931,268.3Z" transform="translate(-417.283 -250.123)"/></g></g><g class="i" transform="translate(1065.553 498.554)"><g transform="translate(24.014)"><path class="j" d="M296.4,90.765a.927.927,0,0,1,0-1.309l443.37-443.37a.925.925,0,0,1,1.309,0,.925.925,0,0,1,0,1.309L297.706,90.765A.926.926,0,0,1,296.4,90.765Z" transform="translate(-296.126 354.185)"/></g><g transform="translate(0 446.848)"><path class="j" d="M276.365,95.12a11.417,11.417,0,1,1,16.146,0A11.43,11.43,0,0,1,276.365,95.12ZM291.2,80.283a9.566,9.566,0,1,0,0,13.527A9.576,9.576,0,0,0,291.2,80.283Z" transform="translate(-273.026 -75.635)"/></g></g><path class="k" d="M358.278,68.1l-56.513,56.513-.184-.168A73.54,73.54,0,0,0,197.66,228.366l.169.183-56.513,56.513-.184-.19A153.438,153.438,0,0,1,358.088,67.916Zm-56.527,55.792,55.785-55.785A152.917,152.917,0,0,0,141.325,284.319l55.785-55.785A74.06,74.06,0,0,1,301.751,123.892Z" transform="translate(785.611 867.76)"/><path class="l" d="M70.77,447.755-180.25,196.736l77.541-77.541L70.77,292.674,244.248,119.195l77.541,77.541ZM-179.515,196.736,70.77,447.02,321.054,196.736,244.248,119.93,70.77,293.409-102.709,119.93Z" transform="translate(774.568 871.492)"/><g class="m" transform="translate(1226.681 1115.131)"><path class="h" d="M431.6,325.849a2.1,2.1,0,1,1-2.976,0A2.1,2.1,0,0,1,431.6,325.849Z" transform="translate(-428.009 -235.475)"/><circle class="h" cx="2.104" cy="2.104" r="2.104" transform="translate(12.822 76.936)"/><circle class="h" cx="2.104" cy="2.104" r="2.104" transform="translate(25.645 64.113)"/><path class="h" d="M468.6,288.847a2.1,2.1,0,1,1-2.977,0A2.1,2.1,0,0,1,468.6,288.847Z" transform="translate(-426.542 -236.941)"/><circle class="h" cx="2.104" cy="2.104" r="2.104" transform="translate(51.29 38.468)"/><circle class="h" cx="2.104" cy="2.104" r="2.104" transform="translate(64.113 25.645)"/><circle class="h" cx="2.104" cy="2.104" r="2.104" transform="translate(76.936 12.823)"/><circle class="h" cx="2.104" cy="2.104" r="2.104" transform="translate(89.758)"/><path class="h" d="M443.935,338.184a2.1,2.1,0,1,1-2.977,0A2.1,2.1,0,0,1,443.935,338.184Z" transform="translate(-427.52 -234.986)"/><circle class="h" cx="2.104" cy="2.104" r="2.104" transform="translate(25.645 89.759)"/><circle class="h" cx="2.104" cy="2.104" r="2.104" transform="translate(38.468 76.936)"/><path class="h" d="M480.937,301.181a2.1,2.1,0,1,1-2.976,0A2.1,2.1,0,0,1,480.937,301.181Z" transform="translate(-426.054 -236.452)"/><circle class="h" cx="2.104" cy="2.104" r="2.104" transform="translate(64.113 51.291)"/><circle class="h" cx="2.104" cy="2.104" r="2.104" transform="translate(76.936 38.468)"/><circle class="h" cx="2.104" cy="2.104" r="2.104" transform="translate(89.758 25.645)"/><circle class="h" cx="2.104" cy="2.104" r="2.104" transform="translate(102.581 12.823)"/><path class="h" d="M456.269,350.518a2.1,2.1,0,1,1-2.976,0A2.1,2.1,0,0,1,456.269,350.518Z" transform="translate(-427.031 -234.498)"/><circle class="h" cx="2.104" cy="2.104" r="2.104" transform="translate(38.468 102.581)"/><circle class="h" cx="2.104" cy="2.104" r="2.104" transform="translate(51.29 89.759)"/><path class="h" d="M493.271,313.516a2.1,2.1,0,1,1-2.976,0A2.1,2.1,0,0,1,493.271,313.516Z" transform="translate(-425.565 -235.963)"/><circle class="h" cx="2.104" cy="2.104" r="2.104" transform="translate(76.936 64.113)"/><circle class="h" cx="2.104" cy="2.104" r="2.104" transform="translate(89.758 51.291)"/><circle class="h" cx="2.104" cy="2.104" r="2.104" transform="translate(102.581 38.468)"/><circle class="h" cx="2.104" cy="2.104" r="2.104" transform="translate(115.404 25.645)"/><path class="h" d="M468.6,362.852a2.1,2.1,0,1,1-2.977,0A2.105,2.105,0,0,1,468.6,362.852Z" transform="translate(-426.542 -234.009)"/><circle class="h" cx="2.104" cy="2.104" r="2.104" transform="translate(51.29 115.404)"/><circle class="h" cx="2.104" cy="2.104" r="2.104" transform="translate(64.113 102.581)"/><path class="h" d="M505.6,325.849a2.1,2.1,0,1,1-2.977,0A2.1,2.1,0,0,1,505.6,325.849Z" transform="translate(-425.077 -235.475)"/><circle class="h" cx="2.104" cy="2.104" r="2.104" transform="translate(89.758 76.936)"/><circle class="h" cx="2.104" cy="2.104" r="2.104" transform="translate(102.581 64.113)"/><circle class="h" cx="2.104" cy="2.104" r="2.104" transform="translate(115.404 51.291)"/><circle class="h" cx="2.104" cy="2.104" r="2.104" transform="translate(128.226 38.468)"/><path class="h" d="M480.937,375.186a2.1,2.1,0,1,1-2.976,0A2.1,2.1,0,0,1,480.937,375.186Z" transform="translate(-426.054 -233.52)"/><circle class="h" cx="2.104" cy="2.104" r="2.104" transform="translate(64.113 128.226)"/><circle class="h" cx="2.104" cy="2.104" r="2.104" transform="translate(76.936 115.404)"/><path class="h" d="M517.939,338.184a2.1,2.1,0,1,1-2.977,0A2.1,2.1,0,0,1,517.939,338.184Z" transform="translate(-424.588 -234.986)"/><circle class="h" cx="2.104" cy="2.104" r="2.104" transform="translate(102.581 89.759)"/><circle class="h" cx="2.104" cy="2.104" r="2.104" transform="translate(115.404 76.936)"/><circle class="h" cx="2.104" cy="2.104" r="2.104" transform="translate(128.226 64.113)"/><circle class="h" cx="2.104" cy="2.104" r="2.104" transform="translate(141.049 51.291)"/><path class="h" d="M493.271,387.52a2.1,2.1,0,1,1-2.976,0A2.1,2.1,0,0,1,493.271,387.52Z" transform="translate(-425.565 -233.032)"/><circle class="h" cx="2.104" cy="2.104" r="2.104" transform="translate(76.936 141.049)"/><circle class="h" cx="2.104" cy="2.104" r="2.104" transform="translate(89.758 128.226)"/><path class="h" d="M530.273,350.518a2.1,2.1,0,1,1-2.976,0A2.1,2.1,0,0,1,530.273,350.518Z" transform="translate(-424.1 -234.498)"/><circle class="h" cx="2.104" cy="2.104" r="2.104" transform="translate(115.404 102.581)"/><circle class="h" cx="2.104" cy="2.104" r="2.104" transform="translate(128.226 89.759)"/><circle class="h" cx="2.104" cy="2.104" r="2.104" transform="translate(141.049 76.936)"/><circle class="h" cx="2.104" cy="2.104" r="2.104" transform="translate(153.872 64.113)"/></g><rect class="n" width="326.026" height="326.026" transform="translate(1003.74 1126.935) rotate(-45)"/><rect class="b" width="520.227" height="369.113" transform="translate(786.757 876.203)"/><g class="o" transform="translate(821.471 762.726)"><g class="p" transform="translate(27.262 -3.821)"><path class="q" d="M236.224,437.5l11.756-11.755H179.817L191.572,437.5Z" transform="translate(-121.454 -267.243)"/><path class="r" d="M142.391,388.323l11.756,11.755h122.47l11.756-11.755Z" transform="translate(-122.937 -268.725)"/><path class="s" d="M123.678,369.61l11.756,11.755H296.812l11.755-11.755Z" transform="translate(-123.678 -269.466)"/><path class="t" d="M227.784,287.91l-14.627-14.627L198.53,287.91Z" transform="translate(-120.712 -273.283)"/><path class="u" d="M161.1,407.036l11.755,11.755H256.42l11.756-11.755Z" transform="translate(-122.195 -267.984)"/><path class="v" d="M154.146,332.184l-11.756,11.756H288.372l-11.756-11.756Z" transform="translate(-122.937 -270.949)"/><path class="w" d="M198.53,444.462l14.627,14.627,14.627-14.627Z" transform="translate(-120.712 -266.501)"/><path class="x" d="M135.434,350.9l-11.756,11.755H308.567L296.812,350.9Z" transform="translate(-123.678 -270.208)"/><path class="y" d="M191.573,294.758l-11.756,11.756H247.98l-11.756-11.756Z" transform="translate(-121.454 -272.432)"/><path class="z" d="M172.859,313.471,161.1,325.226H268.176L256.42,313.471Z" transform="translate(-122.195 -271.69)"/></g></g></g><g transform="translate(-546 -757)"><g transform="translate(756.771 867.755)"><g class="aa" transform="translate(0 0)"><g class="p" transform="translate(15.34 -2.15)"><path class="q" d="M211.556,432.363l6.615-6.614H179.817l6.615,6.614Z" transform="translate(-146.977 -336.56)"/><path class="r" d="M142.391,388.323l6.615,6.614h68.911l6.615-6.614Z" transform="translate(-131.444 -321.027)"/><path class="s" d="M123.678,369.61l6.615,6.614h90.8l6.615-6.614Z" transform="translate(-123.678 -313.261)"/><path class="t" d="M214.991,281.513l-8.23-8.23-8.23,8.23Z" transform="translate(-154.744 -273.283)"/><path class="u" d="M161.1,407.036l6.614,6.614h47.018l6.615-6.614Z" transform="translate(-139.211 -328.794)"/><path class="v" d="M149.006,332.184l-6.615,6.615h82.141l-6.615-6.615Z" transform="translate(-131.444 -297.728)"/><path class="w" d="M198.53,444.462l8.23,8.231,8.23-8.231Z" transform="translate(-154.744 -344.327)"/><path class="x" d="M130.293,350.9l-6.615,6.615H227.712L221.1,350.9Z" transform="translate(-123.678 -305.495)"/><path class="y" d="M186.432,294.758l-6.615,6.615h38.354l-6.615-6.615Z" transform="translate(-146.977 -282.195)"/><path class="z" d="M167.718,313.471l-6.614,6.615h60.247l-6.615-6.615Z" transform="translate(-139.211 -289.962)"/></g></g></g><g class="ab" transform="matrix(1, 0, 0, 1, 613, 851)"><path class="d" d="M69.85,162.8,322.984-90.332,253.212-160.1l-322.9,322.9Z" transform="translate(115.69 -78.81)"/></g><g class="e" transform="translate(844.085 567.564)"><path class="f" d="M424.665,106.579a1.157,1.157,0,1,0,0,1.636A1.157,1.157,0,0,0,424.665,106.579Z" transform="translate(-319.751 94.086)"/><path class="f" d="M415.406,115.818a1.157,1.157,0,1,0,0,1.637A1.157,1.157,0,0,0,415.406,115.818Z" transform="translate(-315.908 90.252)"/><path class="f" d="M406.148,125.058a1.157,1.157,0,1,0,0,1.636A1.157,1.157,0,0,0,406.148,125.058Z" transform="translate(-312.066 86.417)"/><path class="f" d="M396.89,134.3a1.157,1.157,0,1,0,0,1.636A1.156,1.156,0,0,0,396.89,134.3Z" transform="translate(-308.223 82.582)"/><path class="f" d="M387.631,143.537a1.157,1.157,0,1,0,0,1.637A1.157,1.157,0,0,0,387.631,143.537Z" transform="translate(-304.381 78.748)"/><path class="f" d="M378.373,152.777a1.157,1.157,0,1,0,0,1.636A1.157,1.157,0,0,0,378.373,152.777Z" transform="translate(-300.538 74.913)"/><path class="f" d="M369.115,162.016a1.157,1.157,0,1,0,0,1.637A1.157,1.157,0,0,0,369.115,162.016Z" transform="translate(-296.696 71.078)"/><path class="f" d="M359.856,171.256a1.157,1.157,0,1,0,0,1.636A1.157,1.157,0,0,0,359.856,171.256Z" transform="translate(-292.853 67.243)"/><path class="f" d="M350.6,180.5a1.157,1.157,0,1,0,0,1.636A1.156,1.156,0,0,0,350.6,180.5Z" transform="translate(-289.011 63.409)"/><path class="f" d="M341.339,189.735a1.157,1.157,0,1,0,0,1.636A1.157,1.157,0,0,0,341.339,189.735Z" transform="translate(-285.168 59.574)"/><path class="f" d="M332.081,198.975a1.157,1.157,0,1,0,0,1.636A1.157,1.157,0,0,0,332.081,198.975Z" transform="translate(-281.326 55.739)"/><path class="f" d="M322.823,208.214a1.157,1.157,0,1,0,0,1.637A1.158,1.158,0,0,0,322.823,208.214Z" transform="translate(-277.483 51.905)"/><path class="f" d="M313.564,217.454a1.157,1.157,0,1,0,0,1.636A1.157,1.157,0,0,0,313.564,217.454Z" transform="translate(-273.641 48.07)"/><path class="f" d="M304.306,226.693a1.157,1.157,0,1,0,0,1.637A1.157,1.157,0,0,0,304.306,226.693Z" transform="translate(-269.798 44.236)"/><path class="f" d="M295.047,235.933a1.157,1.157,0,1,0,0,1.637A1.157,1.157,0,0,0,295.047,235.933Z" transform="translate(-265.956 40.401)"/><path class="f" d="M285.789,245.173a1.157,1.157,0,1,0,0,1.636A1.157,1.157,0,0,0,285.789,245.173Z" transform="translate(-262.113 36.566)"/><path class="f" d="M591.316-59.734a1.157,1.157,0,0,0-1.636,0,1.156,1.156,0,0,0,0,1.636,1.157,1.157,0,0,0,1.636,0A1.157,1.157,0,0,0,591.316-59.734Z" transform="translate(-388.916 163.111)"/><path class="f" d="M582.058-50.494a1.158,1.158,0,0,0-1.637,0,1.157,1.157,0,0,0,0,1.636,1.157,1.157,0,0,0,1.637,0A1.157,1.157,0,0,0,582.058-50.494Z" transform="translate(-385.073 159.276)"/><path class="f" d="M572.8-41.254a1.157,1.157,0,0,0-1.636,0,1.157,1.157,0,0,0,0,1.636,1.157,1.157,0,0,0,1.636,0A1.156,1.156,0,0,0,572.8-41.254Z" transform="translate(-381.231 155.441)"/><path class="f" d="M563.541-32.015a1.157,1.157,0,0,0-1.636,0,1.157,1.157,0,0,0,0,1.637,1.157,1.157,0,0,0,1.636,0A1.158,1.158,0,0,0,563.541-32.015Z" transform="translate(-377.388 151.607)"/><path class="f" d="M554.282-22.775a1.156,1.156,0,0,0-1.636,0,1.157,1.157,0,0,0,0,1.636,1.157,1.157,0,0,0,1.637,0A1.156,1.156,0,0,0,554.282-22.775Z" transform="translate(-373.546 147.772)"/><path class="f" d="M545.024-13.536a1.157,1.157,0,0,0-1.636,0,1.157,1.157,0,0,0,0,1.636,1.158,1.158,0,0,0,1.636,0A1.158,1.158,0,0,0,545.024-13.536Z" transform="translate(-369.703 143.937)"/><path class="f" d="M535.766-4.3a1.158,1.158,0,0,0-1.637,0,1.158,1.158,0,0,0,0,1.636,1.157,1.157,0,0,0,1.637,0A1.157,1.157,0,0,0,535.766-4.3Z" transform="translate(-365.861 140.102)"/><path class="f" d="M526.507,4.944a1.157,1.157,0,1,0,0,1.636A1.156,1.156,0,0,0,526.507,4.944Z" transform="translate(-362.018 136.268)"/><path class="f" d="M517.249,14.183a1.157,1.157,0,1,0,0,1.637A1.157,1.157,0,0,0,517.249,14.183Z" transform="translate(-358.176 132.433)"/><path class="f" d="M507.99,23.423a1.157,1.157,0,1,0,0,1.636A1.157,1.157,0,0,0,507.99,23.423Z" transform="translate(-354.333 128.598)"/><path class="f" d="M498.732,32.662a1.157,1.157,0,1,0,0,1.637A1.157,1.157,0,0,0,498.732,32.662Z" transform="translate(-350.491 124.764)"/><path class="f" d="M489.474,41.9a1.157,1.157,0,1,0,0,1.636A1.157,1.157,0,0,0,489.474,41.9Z" transform="translate(-346.648 120.929)"/><path class="f" d="M480.215,51.142a1.157,1.157,0,1,0,0,1.636A1.157,1.157,0,0,0,480.215,51.142Z" transform="translate(-342.806 117.094)"/><path class="f" d="M470.957,60.381a1.157,1.157,0,1,0,0,1.636A1.157,1.157,0,0,0,470.957,60.381Z" transform="translate(-338.963 113.26)"/><path class="f" d="M461.7,69.621a1.157,1.157,0,1,0,0,1.636A1.157,1.157,0,0,0,461.7,69.621Z" transform="translate(-335.121 109.425)"/><path class="f" d="M452.44,78.86a1.157,1.157,0,1,0,0,1.637A1.157,1.157,0,0,0,452.44,78.86Z" transform="translate(-331.278 105.59)"/><path class="f" d="M443.181,88.1a1.157,1.157,0,1,0,0,1.636A1.157,1.157,0,0,0,443.181,88.1Z" transform="translate(-327.436 101.756)"/><path class="f" d="M433.923,97.339a1.157,1.157,0,1,0,0,1.637A1.157,1.157,0,0,0,433.923,97.339Z" transform="translate(-323.593 97.921)"/><path class="f" d="M748.709-216.806a1.158,1.158,0,0,0-1.637,0,1.157,1.157,0,0,0,0,1.636,1.157,1.157,0,0,0,1.637,0A1.157,1.157,0,0,0,748.709-216.806Z" transform="translate(-454.238 228.3)"/><path class="f" d="M739.45-207.567a1.157,1.157,0,0,0-1.636,0,1.158,1.158,0,0,0,0,1.636,1.158,1.158,0,0,0,1.637,0A1.157,1.157,0,0,0,739.45-207.567Z" transform="translate(-450.395 224.465)"/><path class="f" d="M730.192-198.327a1.157,1.157,0,0,0-1.636,0,1.156,1.156,0,0,0,0,1.636,1.157,1.157,0,0,0,1.636,0A1.157,1.157,0,0,0,730.192-198.327Z" transform="translate(-446.553 220.631)"/><path class="f" d="M720.933-189.088a1.157,1.157,0,0,0-1.636,0,1.158,1.158,0,0,0,0,1.636,1.158,1.158,0,0,0,1.637,0A1.157,1.157,0,0,0,720.933-189.088Z" transform="translate(-442.711 216.796)"/><path class="f" d="M711.675-179.848a1.157,1.157,0,0,0-1.636,0,1.157,1.157,0,0,0,0,1.636,1.156,1.156,0,0,0,1.636,0A1.156,1.156,0,0,0,711.675-179.848Z" transform="translate(-438.868 212.961)"/><path class="f" d="M702.417-170.609a1.158,1.158,0,0,0-1.637,0,1.157,1.157,0,0,0,0,1.636,1.157,1.157,0,0,0,1.636,0A1.158,1.158,0,0,0,702.417-170.609Z" transform="translate(-435.025 209.127)"/><path class="f" d="M693.158-161.369a1.157,1.157,0,0,0-1.636,0,1.157,1.157,0,0,0,0,1.636,1.157,1.157,0,0,0,1.636,0A1.157,1.157,0,0,0,693.158-161.369Z" transform="translate(-431.183 205.292)"/><path class="f" d="M683.9-152.129a1.157,1.157,0,0,0-1.636,0,1.156,1.156,0,0,0,0,1.636,1.157,1.157,0,0,0,1.637,0A1.157,1.157,0,0,0,683.9-152.129Z" transform="translate(-427.341 201.457)"/><path class="f" d="M674.641-142.89a1.158,1.158,0,0,0-1.636,0,1.158,1.158,0,0,0,0,1.637,1.158,1.158,0,0,0,1.637,0A1.157,1.157,0,0,0,674.641-142.89Z" transform="translate(-423.498 197.623)"/><path class="f" d="M665.383-133.65a1.157,1.157,0,0,0-1.636,0,1.158,1.158,0,0,0,0,1.636,1.156,1.156,0,0,0,1.636,0A1.156,1.156,0,0,0,665.383-133.65Z" transform="translate(-419.656 193.788)"/><path class="f" d="M656.125-124.411a1.157,1.157,0,0,0-1.637,0,1.157,1.157,0,0,0,0,1.636,1.157,1.157,0,0,0,1.637,0A1.158,1.158,0,0,0,656.125-124.411Z" transform="translate(-415.813 189.953)"/><path class="f" d="M646.866-115.171a1.158,1.158,0,0,0-1.636,0,1.158,1.158,0,0,0,0,1.636,1.157,1.157,0,0,0,1.637,0A1.157,1.157,0,0,0,646.866-115.171Z" transform="translate(-411.971 186.119)"/><path class="f" d="M637.608-105.931a1.157,1.157,0,0,0-1.636,0,1.157,1.157,0,0,0,0,1.636,1.157,1.157,0,0,0,1.636,0A1.157,1.157,0,0,0,637.608-105.931Z" transform="translate(-408.128 182.284)"/><path class="f" d="M628.349-96.692a1.157,1.157,0,0,0-1.636,0,1.158,1.158,0,0,0,0,1.636,1.158,1.158,0,0,0,1.637,0A1.157,1.157,0,0,0,628.349-96.692Z" transform="translate(-404.285 178.449)"/><path class="f" d="M619.091-87.452a1.157,1.157,0,0,0-1.637,0,1.157,1.157,0,0,0,0,1.636,1.156,1.156,0,0,0,1.636,0A1.157,1.157,0,0,0,619.091-87.452Z" transform="translate(-400.443 174.615)"/><path class="f" d="M609.833-78.213a1.157,1.157,0,0,0-1.636,0,1.157,1.157,0,0,0,0,1.636,1.157,1.157,0,0,0,1.636,0A1.157,1.157,0,0,0,609.833-78.213Z" transform="translate(-396.6 170.78)"/><path class="f" d="M600.574-68.973a1.157,1.157,0,0,0-1.636,0,1.157,1.157,0,0,0,0,1.636,1.156,1.156,0,0,0,1.636,0A1.156,1.156,0,0,0,600.574-68.973Z" transform="translate(-392.758 166.945)"/><path class="f" d="M415.337,97.252a1.157,1.157,0,1,0,0,1.636A1.158,1.158,0,0,0,415.337,97.252Z" transform="translate(-315.88 97.957)"/><path class="f" d="M406.088,106.5a1.157,1.157,0,1,0,0,1.636A1.157,1.157,0,0,0,406.088,106.5Z" transform="translate(-312.041 94.119)"/><path class="f" d="M396.84,115.75a1.157,1.157,0,1,0,0,1.636A1.157,1.157,0,0,0,396.84,115.75Z" transform="translate(-308.203 90.28)"/><path class="f" d="M387.591,125a1.157,1.157,0,1,0,0,1.636A1.157,1.157,0,0,0,387.591,125Z" transform="translate(-304.364 86.441)"/><path class="f" d="M378.341,134.248a1.157,1.157,0,1,0,0,1.636A1.157,1.157,0,0,0,378.341,134.248Z" transform="translate(-300.525 82.603)"/><path class="f" d="M369.093,143.5a1.157,1.157,0,1,0,0,1.636A1.157,1.157,0,0,0,369.093,143.5Z" transform="translate(-296.687 78.764)"/><path class="f" d="M359.844,152.746a1.157,1.157,0,1,0,0,1.636A1.157,1.157,0,0,0,359.844,152.746Z" transform="translate(-292.848 74.926)"/><path class="f" d="M350.595,161.995a1.157,1.157,0,1,0,0,1.636A1.157,1.157,0,0,0,350.595,161.995Z" transform="translate(-289.01 71.087)"/><path class="f" d="M341.345,171.244a1.157,1.157,0,1,0,0,1.636A1.157,1.157,0,0,0,341.345,171.244Z" transform="translate(-285.171 67.248)"/><path class="f" d="M332.1,180.493a1.157,1.157,0,1,0,0,1.636A1.157,1.157,0,0,0,332.1,180.493Z" transform="translate(-281.332 63.41)"/><path class="f" d="M322.848,189.742a1.157,1.157,0,1,0,0,1.636A1.157,1.157,0,0,0,322.848,189.742Z" transform="translate(-277.494 59.571)"/><path class="f" d="M313.6,198.991a1.157,1.157,0,1,0,0,1.636A1.157,1.157,0,0,0,313.6,198.991Z" transform="translate(-273.655 55.733)"/><path class="f" d="M304.35,208.24a1.157,1.157,0,1,0,0,1.636A1.157,1.157,0,0,0,304.35,208.24Z" transform="translate(-269.817 51.894)"/><path class="f" d="M295.1,217.489a1.157,1.157,0,1,0,0,1.636A1.157,1.157,0,0,0,295.1,217.489Z" transform="translate(-265.978 48.055)"/><path class="f" d="M285.852,226.738a1.157,1.157,0,1,0,0,1.636A1.157,1.157,0,0,0,285.852,226.738Z" transform="translate(-262.14 44.217)"/><path class="f" d="M276.6,235.987a1.157,1.157,0,1,0,0,1.636A1.157,1.157,0,0,0,276.6,235.987Z" transform="translate(-258.301 40.378)"/><path class="f" d="M267.354,245.236a1.157,1.157,0,1,0,0,1.636A1.157,1.157,0,0,0,267.354,245.236Z" transform="translate(-254.463 36.54)"/><path class="f" d="M581.82-69.23a1.158,1.158,0,0,0-1.637,0,1.157,1.157,0,0,0,0,1.636,1.157,1.157,0,0,0,1.637,0A1.158,1.158,0,0,0,581.82-69.23Z" transform="translate(-384.975 167.052)"/><path class="f" d="M572.571-59.981a1.158,1.158,0,0,0-1.637,0,1.157,1.157,0,0,0,0,1.636,1.157,1.157,0,0,0,1.636,0A1.158,1.158,0,0,0,572.571-59.981Z" transform="translate(-381.136 163.213)"/><path class="f" d="M563.321-50.732a1.158,1.158,0,0,0-1.637,0,1.157,1.157,0,0,0,0,1.636,1.156,1.156,0,0,0,1.636,0A1.157,1.157,0,0,0,563.321-50.732Z" transform="translate(-377.297 159.374)"/><path class="f" d="M554.073-41.483a1.158,1.158,0,0,0-1.637,0,1.157,1.157,0,0,0,0,1.636,1.157,1.157,0,0,0,1.636,0A1.157,1.157,0,0,0,554.073-41.483Z" transform="translate(-373.459 155.536)"/><path class="f" d="M544.823-32.234a1.157,1.157,0,0,0-1.637,0,1.157,1.157,0,0,0,0,1.636,1.157,1.157,0,0,0,1.637,0A1.158,1.158,0,0,0,544.823-32.234Z" transform="translate(-369.62 151.697)"/><path class="f" d="M535.575-22.985a1.157,1.157,0,0,0-1.637,0,1.157,1.157,0,0,0,0,1.636,1.156,1.156,0,0,0,1.636,0A1.158,1.158,0,0,0,535.575-22.985Z" transform="translate(-365.781 147.859)"/><path class="f" d="M526.326-13.736a1.158,1.158,0,0,0-1.637,0,1.157,1.157,0,0,0,0,1.636,1.156,1.156,0,0,0,1.636,0A1.157,1.157,0,0,0,526.326-13.736Z" transform="translate(-361.943 144.02)"/><path class="f" d="M517.076-4.487a1.157,1.157,0,0,0-1.637,0,1.157,1.157,0,0,0,0,1.636,1.156,1.156,0,0,0,1.636,0A1.157,1.157,0,0,0,517.076-4.487Z" transform="translate(-358.104 140.182)"/><path class="f" d="M507.827,4.762a1.157,1.157,0,1,0,0,1.636A1.157,1.157,0,0,0,507.827,4.762Z" transform="translate(-354.266 136.343)"/><path class="f" d="M498.578,14.011a1.157,1.157,0,1,0,0,1.636A1.157,1.157,0,0,0,498.578,14.011Z" transform="translate(-350.427 132.504)"/><path class="f" d="M489.33,23.26a1.157,1.157,0,1,0,0,1.636A1.158,1.158,0,0,0,489.33,23.26Z" transform="translate(-346.588 128.666)"/><path class="f" d="M480.08,32.509a1.157,1.157,0,1,0,0,1.636A1.157,1.157,0,0,0,480.08,32.509Z" transform="translate(-342.75 124.827)"/><path class="f" d="M470.832,41.758a1.157,1.157,0,1,0,0,1.636A1.157,1.157,0,0,0,470.832,41.758Z" transform="translate(-338.912 120.989)"/><path class="f" d="M461.583,51.007a1.157,1.157,0,1,0,0,1.636A1.157,1.157,0,0,0,461.583,51.007Z" transform="translate(-335.073 117.15)"/><path class="f" d="M452.334,60.256a1.157,1.157,0,1,0,0,1.636A1.158,1.158,0,0,0,452.334,60.256Z" transform="translate(-331.234 113.312)"/><path class="f" d="M443.085,69.5a1.157,1.157,0,1,0,0,1.636A1.157,1.157,0,0,0,443.085,69.5Z" transform="translate(-327.396 109.473)"/><path class="f" d="M433.835,78.754a1.157,1.157,0,1,0,0,1.636A1.157,1.157,0,0,0,433.835,78.754Z" transform="translate(-323.557 105.634)"/><path class="f" d="M424.587,88a1.157,1.157,0,1,0,0,1.636A1.158,1.158,0,0,0,424.587,88Z" transform="translate(-319.718 101.796)"/><path class="f" d="M748.3-235.712a1.158,1.158,0,0,0-1.637,0,1.157,1.157,0,0,0,0,1.636,1.156,1.156,0,0,0,1.636,0A1.156,1.156,0,0,0,748.3-235.712Z" transform="translate(-454.069 236.146)"/><path class="f" d="M739.053-226.463a1.158,1.158,0,0,0-1.637,0,1.157,1.157,0,0,0,0,1.636,1.157,1.157,0,0,0,1.637,0A1.157,1.157,0,0,0,739.053-226.463Z" transform="translate(-450.231 232.308)"/><path class="f" d="M729.8-217.214a1.158,1.158,0,0,0-1.637,0,1.157,1.157,0,0,0,0,1.636,1.157,1.157,0,0,0,1.637,0A1.157,1.157,0,0,0,729.8-217.214Z" transform="translate(-446.392 228.469)"/><path class="f" d="M720.555-207.965a1.159,1.159,0,0,0-1.637,0,1.157,1.157,0,0,0,0,1.636,1.156,1.156,0,0,0,1.636,0A1.158,1.158,0,0,0,720.555-207.965Z" transform="translate(-442.553 224.63)"/><path class="f" d="M711.305-198.716a1.157,1.157,0,0,0-1.637,0,1.158,1.158,0,0,0,0,1.637,1.157,1.157,0,0,0,1.636,0A1.156,1.156,0,0,0,711.305-198.716Z" transform="translate(-438.715 220.792)"/><path class="f" d="M702.056-189.467a1.158,1.158,0,0,0-1.637,0,1.157,1.157,0,0,0,0,1.636,1.157,1.157,0,0,0,1.637,0A1.157,1.157,0,0,0,702.056-189.467Z" transform="translate(-434.876 216.953)"/><path class="f" d="M692.808-180.218a1.158,1.158,0,0,0-1.637,0,1.158,1.158,0,0,0,0,1.636,1.157,1.157,0,0,0,1.636,0A1.157,1.157,0,0,0,692.808-180.218Z" transform="translate(-431.038 213.115)"/><path class="f" d="M683.558-170.969a1.158,1.158,0,0,0-1.637,0,1.157,1.157,0,0,0,0,1.636,1.156,1.156,0,0,0,1.636,0A1.156,1.156,0,0,0,683.558-170.969Z" transform="translate(-427.199 209.276)"/><path class="f" d="M674.31-161.72a1.158,1.158,0,0,0-1.637,0,1.157,1.157,0,0,0,0,1.636,1.157,1.157,0,0,0,1.637,0A1.158,1.158,0,0,0,674.31-161.72Z" transform="translate(-423.36 205.438)"/><path class="f" d="M665.06-152.471a1.158,1.158,0,0,0-1.637,0,1.157,1.157,0,0,0,0,1.636,1.157,1.157,0,0,0,1.637,0A1.158,1.158,0,0,0,665.06-152.471Z" transform="translate(-419.522 201.599)"/><path class="f" d="M655.812-143.222a1.158,1.158,0,0,0-1.637,0,1.157,1.157,0,0,0,0,1.636,1.156,1.156,0,0,0,1.636,0A1.157,1.157,0,0,0,655.812-143.222Z" transform="translate(-415.683 197.76)"/><path class="f" d="M646.562-133.973a1.158,1.158,0,0,0-1.637,0,1.157,1.157,0,0,0,0,1.636,1.156,1.156,0,0,0,1.636,0A1.157,1.157,0,0,0,646.562-133.973Z" transform="translate(-411.845 193.922)"/><path class="f" d="M637.314-124.724a1.158,1.158,0,0,0-1.637,0,1.158,1.158,0,0,0,0,1.636,1.157,1.157,0,0,0,1.637,0A1.158,1.158,0,0,0,637.314-124.724Z" transform="translate(-408.006 190.083)"/><path class="f" d="M628.065-115.475a1.159,1.159,0,0,0-1.637,0,1.157,1.157,0,0,0,0,1.636,1.156,1.156,0,0,0,1.636,0A1.158,1.158,0,0,0,628.065-115.475Z" transform="translate(-404.168 186.245)"/><path class="f" d="M618.816-106.226a1.158,1.158,0,0,0-1.637,0,1.158,1.158,0,0,0,0,1.637,1.157,1.157,0,0,0,1.636,0A1.158,1.158,0,0,0,618.816-106.226Z" transform="translate(-400.329 182.406)"/><path class="f" d="M609.567-96.977a1.158,1.158,0,0,0-1.637,0,1.158,1.158,0,0,0,0,1.636,1.156,1.156,0,0,0,1.636,0A1.157,1.157,0,0,0,609.567-96.977Z" transform="translate(-396.49 178.568)"/><path class="f" d="M600.318-87.728a1.158,1.158,0,0,0-1.637,0,1.157,1.157,0,0,0,0,1.636,1.156,1.156,0,0,0,1.636,0A1.157,1.157,0,0,0,600.318-87.728Z" transform="translate(-392.652 174.729)"/><path class="f" d="M591.069-78.479a1.158,1.158,0,0,0-1.637,0,1.157,1.157,0,0,0,0,1.636,1.156,1.156,0,0,0,1.636,0A1.158,1.158,0,0,0,591.069-78.479Z" transform="translate(-388.813 170.89)"/><path class="f" d="M405.927,87.84a1.157,1.157,0,1,0,0,1.637A1.158,1.158,0,0,0,405.927,87.84Z" transform="translate(-311.974 101.863)"/><path class="f" d="M396.677,97.089a1.157,1.157,0,1,0,0,1.637A1.158,1.158,0,0,0,396.677,97.089Z" transform="translate(-308.135 98.025)"/><path class="f" d="M387.428,106.338a1.157,1.157,0,1,0,0,1.636A1.157,1.157,0,0,0,387.428,106.338Z" transform="translate(-304.297 94.186)"/><path class="f" d="M378.18,115.587a1.157,1.157,0,1,0,0,1.637A1.158,1.158,0,0,0,378.18,115.587Z" transform="translate(-300.458 90.347)"/><path class="f" d="M368.93,124.836a1.157,1.157,0,1,0,0,1.636A1.156,1.156,0,0,0,368.93,124.836Z" transform="translate(-296.62 86.509)"/><path class="f" d="M359.681,134.085a1.157,1.157,0,1,0,0,1.636A1.157,1.157,0,0,0,359.681,134.085Z" transform="translate(-292.781 82.67)"/><path class="f" d="M350.432,143.334a1.157,1.157,0,1,0,0,1.637A1.157,1.157,0,0,0,350.432,143.334Z" transform="translate(-288.942 78.832)"/><path class="f" d="M341.183,152.583a1.157,1.157,0,1,0,0,1.637A1.158,1.158,0,0,0,341.183,152.583Z" transform="translate(-285.104 74.993)"/><path class="f" d="M331.934,161.832a1.157,1.157,0,1,0,0,1.637A1.158,1.158,0,0,0,331.934,161.832Z" transform="translate(-281.265 71.155)"/><path class="f" d="M322.685,171.081a1.157,1.157,0,1,0,0,1.637A1.157,1.157,0,0,0,322.685,171.081Z" transform="translate(-277.427 67.316)"/><path class="f" d="M313.436,180.33a1.157,1.157,0,1,0,0,1.637A1.158,1.158,0,0,0,313.436,180.33Z" transform="translate(-273.588 63.477)"/><path class="f" d="M304.187,189.579a1.157,1.157,0,1,0,0,1.637A1.158,1.158,0,0,0,304.187,189.579Z" transform="translate(-269.75 59.639)"/><path class="f" d="M294.938,198.828a1.157,1.157,0,1,0,0,1.636A1.157,1.157,0,0,0,294.938,198.828Z" transform="translate(-265.911 55.8)"/><path class="f" d="M285.689,208.077a1.157,1.157,0,1,0,0,1.637A1.158,1.158,0,0,0,285.689,208.077Z" transform="translate(-262.072 51.962)"/><path class="f" d="M276.44,217.326a1.157,1.157,0,1,0,0,1.636A1.156,1.156,0,0,0,276.44,217.326Z" transform="translate(-258.234 48.123)"/><path class="f" d="M267.191,226.575a1.157,1.157,0,1,0,0,1.636A1.156,1.156,0,0,0,267.191,226.575Z" transform="translate(-254.395 44.284)"/><path class="f" d="M257.943,235.824a1.157,1.157,0,1,0,0,1.637A1.158,1.158,0,0,0,257.943,235.824Z" transform="translate(-250.557 40.446)"/><path class="f" d="M248.693,245.073a1.157,1.157,0,1,0,0,1.637A1.158,1.158,0,0,0,248.693,245.073Z" transform="translate(-246.718 36.607)"/><path class="f" d="M572.408-78.642a1.156,1.156,0,0,0-1.636,0,1.157,1.157,0,0,0,0,1.636,1.157,1.157,0,0,0,1.636,0A1.157,1.157,0,0,0,572.408-78.642Z" transform="translate(-381.068 170.958)"/><path class="f" d="M563.159-69.393a1.156,1.156,0,0,0-1.636,0,1.157,1.157,0,0,0,0,1.636,1.158,1.158,0,0,0,1.637,0A1.156,1.156,0,0,0,563.159-69.393Z" transform="translate(-377.23 167.119)"/><path class="f" d="M553.91-60.144a1.156,1.156,0,0,0-1.636,0,1.157,1.157,0,0,0,0,1.636,1.158,1.158,0,0,0,1.637,0A1.157,1.157,0,0,0,553.91-60.144Z" transform="translate(-373.391 163.281)"/><path class="f" d="M544.661-50.895a1.156,1.156,0,0,0-1.636,0,1.158,1.158,0,0,0,0,1.636,1.158,1.158,0,0,0,1.637,0A1.156,1.156,0,0,0,544.661-50.895Z" transform="translate(-369.553 159.442)"/><path class="f" d="M535.412-41.646a1.156,1.156,0,0,0-1.636,0,1.157,1.157,0,0,0,0,1.636,1.157,1.157,0,0,0,1.636,0A1.156,1.156,0,0,0,535.412-41.646Z" transform="translate(-365.714 155.603)"/><path class="f" d="M526.163-32.4a1.156,1.156,0,0,0-1.636,0,1.157,1.157,0,0,0,0,1.636,1.158,1.158,0,0,0,1.637,0A1.157,1.157,0,0,0,526.163-32.4Z" transform="translate(-361.876 151.765)"/><path class="f" d="M516.914-23.148a1.156,1.156,0,0,0-1.636,0,1.157,1.157,0,0,0,0,1.636,1.156,1.156,0,0,0,1.636,0A1.156,1.156,0,0,0,516.914-23.148Z" transform="translate(-358.037 147.926)"/><path class="f" d="M507.665-13.9a1.156,1.156,0,0,0-1.636,0,1.157,1.157,0,0,0,0,1.636,1.157,1.157,0,0,0,1.636,0A1.156,1.156,0,0,0,507.665-13.9Z" transform="translate(-354.199 144.088)"/><path class="f" d="M498.416-4.65a1.156,1.156,0,0,0-1.636,0,1.157,1.157,0,0,0,0,1.636,1.158,1.158,0,0,0,1.637,0A1.157,1.157,0,0,0,498.416-4.65Z" transform="translate(-350.36 140.249)"/><path class="f" d="M489.167,4.6a1.157,1.157,0,1,0,0,1.636A1.157,1.157,0,0,0,489.167,4.6Z" transform="translate(-346.521 136.41)"/><path class="f" d="M479.918,13.848a1.157,1.157,0,1,0,0,1.636A1.156,1.156,0,0,0,479.918,13.848Z" transform="translate(-342.683 132.572)"/><path class="f" d="M470.669,23.1a1.157,1.157,0,1,0,0,1.636A1.156,1.156,0,0,0,470.669,23.1Z" transform="translate(-338.844 128.733)"/><path class="f" d="M461.42,32.346a1.157,1.157,0,1,0,0,1.636A1.156,1.156,0,0,0,461.42,32.346Z" transform="translate(-335.005 124.895)"/><path class="f" d="M452.171,41.6a1.157,1.157,0,1,0,0,1.636A1.156,1.156,0,0,0,452.171,41.6Z" transform="translate(-331.167 121.056)"/><path class="f" d="M442.922,50.844a1.157,1.157,0,1,0,0,1.636A1.156,1.156,0,0,0,442.922,50.844Z" transform="translate(-327.328 117.217)"/><path class="f" d="M433.673,60.093a1.157,1.157,0,1,0,0,1.636A1.156,1.156,0,0,0,433.673,60.093Z" transform="translate(-323.49 113.379)"/><path class="f" d="M424.424,69.342a1.157,1.157,0,1,0,0,1.636A1.156,1.156,0,0,0,424.424,69.342Z" transform="translate(-319.651 109.54)"/><path class="f" d="M415.175,78.591a1.157,1.157,0,1,0,0,1.637A1.158,1.158,0,0,0,415.175,78.591Z" transform="translate(-315.813 105.702)"/><path class="f" d="M729.641-235.875a1.156,1.156,0,0,0-1.636,0,1.157,1.157,0,0,0,0,1.636,1.157,1.157,0,0,0,1.636,0A1.156,1.156,0,0,0,729.641-235.875Z" transform="translate(-446.325 236.214)"/><path class="f" d="M720.392-226.626a1.156,1.156,0,0,0-1.636,0,1.157,1.157,0,0,0,0,1.636,1.157,1.157,0,0,0,1.636,0A1.157,1.157,0,0,0,720.392-226.626Z" transform="translate(-442.486 232.375)"/><path class="f" d="M711.143-217.377a1.156,1.156,0,0,0-1.636,0,1.157,1.157,0,0,0,0,1.636,1.157,1.157,0,0,0,1.636,0A1.156,1.156,0,0,0,711.143-217.377Z" transform="translate(-438.647 228.537)"/><path class="f" d="M701.894-208.128a1.156,1.156,0,0,0-1.636,0,1.157,1.157,0,0,0,0,1.636,1.156,1.156,0,0,0,1.636,0A1.156,1.156,0,0,0,701.894-208.128Z" transform="translate(-434.809 224.698)"/><path class="f" d="M692.645-198.879a1.157,1.157,0,0,0-1.637,0,1.158,1.158,0,0,0,0,1.636,1.157,1.157,0,0,0,1.637,0A1.157,1.157,0,0,0,692.645-198.879Z" transform="translate(-430.97 220.859)"/><path class="f" d="M683.4-189.629a1.157,1.157,0,0,0-1.636,0,1.157,1.157,0,0,0,0,1.636,1.157,1.157,0,0,0,1.636,0A1.157,1.157,0,0,0,683.4-189.629Z" transform="translate(-427.132 217.021)"/><path class="f" d="M674.147-180.381a1.156,1.156,0,0,0-1.636,0,1.157,1.157,0,0,0,0,1.636,1.157,1.157,0,0,0,1.636,0A1.156,1.156,0,0,0,674.147-180.381Z" transform="translate(-423.293 213.182)"/><path class="f" d="M664.9-171.132a1.156,1.156,0,0,0-1.636,0,1.157,1.157,0,0,0,0,1.636,1.157,1.157,0,0,0,1.636,0A1.156,1.156,0,0,0,664.9-171.132Z" transform="translate(-419.455 209.344)"/><path class="f" d="M655.649-161.883a1.157,1.157,0,0,0-1.636,0,1.157,1.157,0,0,0,0,1.636,1.158,1.158,0,0,0,1.637,0A1.157,1.157,0,0,0,655.649-161.883Z" transform="translate(-415.616 205.505)"/><path class="f" d="M646.4-152.634a1.156,1.156,0,0,0-1.636,0,1.157,1.157,0,0,0,0,1.636,1.157,1.157,0,0,0,1.636,0A1.156,1.156,0,0,0,646.4-152.634Z" transform="translate(-411.777 201.666)"/><path class="f" d="M637.151-143.385a1.156,1.156,0,0,0-1.636,0,1.157,1.157,0,0,0,0,1.636,1.157,1.157,0,0,0,1.636,0A1.156,1.156,0,0,0,637.151-143.385Z" transform="translate(-407.939 197.828)"/><path class="f" d="M627.9-134.136a1.156,1.156,0,0,0-1.636,0,1.158,1.158,0,0,0,0,1.636,1.157,1.157,0,0,0,1.636,0A1.156,1.156,0,0,0,627.9-134.136Z" transform="translate(-404.1 193.989)"/><path class="f" d="M618.653-124.887a1.157,1.157,0,0,0-1.636,0,1.157,1.157,0,0,0,0,1.636,1.157,1.157,0,0,0,1.636,0A1.157,1.157,0,0,0,618.653-124.887Z" transform="translate(-400.261 190.151)"/><path class="f" d="M609.4-115.638a1.156,1.156,0,0,0-1.636,0,1.156,1.156,0,0,0,0,1.636,1.157,1.157,0,0,0,1.636,0A1.157,1.157,0,0,0,609.4-115.638Z" transform="translate(-396.422 186.312)"/><path class="f" d="M600.155-106.389a1.156,1.156,0,0,0-1.636,0,1.157,1.157,0,0,0,0,1.636,1.157,1.157,0,0,0,1.636,0A1.157,1.157,0,0,0,600.155-106.389Z" transform="translate(-392.584 182.474)"/><path class="f" d="M590.906-97.14a1.156,1.156,0,0,0-1.636,0,1.157,1.157,0,0,0,0,1.636,1.157,1.157,0,0,0,1.636,0A1.156,1.156,0,0,0,590.906-97.14Z" transform="translate(-388.746 178.635)"/><path class="f" d="M581.657-87.89a1.156,1.156,0,0,0-1.636,0,1.157,1.157,0,0,0,0,1.636,1.157,1.157,0,0,0,1.636,0A1.156,1.156,0,0,0,581.657-87.89Z" transform="translate(-384.907 174.796)"/></g><g class="g" transform="translate(633.539 739.53)"><g transform="translate(29.711)"><path class="h" d="M119.143,57.76-62,238.9h-.416L118.727,57.76Z" transform="translate(62.415 -57.76)"/></g><g transform="translate(26.409)"><path class="h" d="M113.5,57.76-67.645,238.9h-.413L113.087,57.76Z" transform="translate(68.058 -57.76)"/></g><g transform="translate(23.112)"><path class="h" d="M107.856,57.76-73.283,238.9H-73.7L107.446,57.76Z" transform="translate(73.696 -57.76)"/></g><g transform="translate(19.807)"><path class="h" d="M102.213,57.76-78.929,238.9h-.416L101.8,57.76Z" transform="translate(79.345 -57.76)"/></g><g transform="translate(16.509)"><path class="h" d="M96.569,57.76-84.573,238.9h-.41L96.159,57.76Z" transform="translate(84.983 -57.76)"/></g><g transform="translate(13.208)"><path class="h" d="M90.926,57.76-90.216,238.9h-.41L90.516,57.76Z" transform="translate(90.626 -57.76)"/></g><g transform="translate(9.904)"><path class="h" d="M85.283,57.76-95.859,238.9h-.416L84.867,57.76Z" transform="translate(96.275 -57.76)"/></g><g transform="translate(6.602)"><path class="h" d="M79.637,57.76-101.505,238.9h-.413L79.227,57.76Z" transform="translate(101.918 -57.76)"/></g><g transform="translate(3.305)"><path class="h" d="M74,57.76-107.143,238.9h-.413L73.583,57.76Z" transform="translate(107.556 -57.76)"/></g><path class="h" d="M68.353,57.76-112.789,238.9h-.416L67.937,57.76Z" transform="translate(113.205 -57.76)"/></g><g class="i" transform="translate(692.672 852.059)"><g transform="translate(0 13.758)"><path class="j" d="M238.248,273.8a.521.521,0,0,1,0,.737L-11.228,524.007a.52.52,0,0,1-.736,0,.52.52,0,0,1,0-.736L237.511,273.8A.521.521,0,0,1,238.248,273.8Z" transform="translate(12.117 -273.643)"/></g><g transform="translate(251.187)"><path class="j" d="M428.246,252a6.424,6.424,0,1,1-9.085,0A6.432,6.432,0,0,1,428.246,252Zm-8.348,8.349a5.382,5.382,0,1,0,0-7.612A5.387,5.387,0,0,0,419.9,260.351Z" transform="translate(-417.283 -250.123)"/></g></g><g class="i" transform="translate(859.473 498.554)"><g transform="translate(13.512)"><path class="j" d="M296.278-103.82a.522.522,0,0,1,0-.737L545.753-354.032a.521.521,0,0,1,.737,0,.521.521,0,0,1,0,.737L297.015-103.82A.521.521,0,0,1,296.278-103.82Z" transform="translate(-296.126 354.185)"/></g><g transform="translate(0 251.433)"><path class="j" d="M274.905,86.6a6.424,6.424,0,1,1,9.085,0A6.431,6.431,0,0,1,274.905,86.6Zm8.348-8.348a5.382,5.382,0,1,0,0,7.612A5.388,5.388,0,0,0,283.254,78.25Z" transform="translate(-273.027 -75.635)"/></g></g><path class="k" d="M244.551,49.254l-31.8,31.8-.1-.095a41.379,41.379,0,0,0-58.474,58.474l.1.1-31.8,31.8-.1-.107A86.336,86.336,0,0,1,244.444,49.151ZM212.744,80.648l31.389-31.389A86.043,86.043,0,0,0,122.475,170.916l31.389-31.389a41.672,41.672,0,0,1,58.88-58.88Z" transform="translate(659 695.364)"/><path class="l" d="M-39.006,304.069-180.25,162.826l43.631-43.631,97.613,97.613L58.607,119.2l43.631,43.631Zm-140.83-141.243,140.83,140.83,140.83-140.83L58.607,119.609l-97.613,97.613-97.613-97.613Z" transform="translate(774.568 656.273)"/><g class="m" transform="translate(950.136 845.49)"><path class="h" d="M430.03,325.58a1.184,1.184,0,1,1-1.675,0A1.184,1.184,0,0,1,430.03,325.58Z" transform="translate(-428.009 -274.728)"/><circle class="h" cx="1.184" cy="1.184" r="1.184" transform="translate(7.215 43.29)"/><circle class="h" cx="1.184" cy="1.184" r="1.184" transform="translate(14.43 36.075)"/><path class="h" d="M467.032,288.578a1.184,1.184,0,1,1-1.675,0A1.184,1.184,0,0,1,467.032,288.578Z" transform="translate(-443.365 -259.371)"/><circle class="h" cx="1.184" cy="1.184" r="1.184" transform="translate(28.86 21.645)"/><circle class="h" cx="1.184" cy="1.184" r="1.184" transform="translate(36.075 14.43)"/><circle class="h" cx="1.184" cy="1.184" r="1.184" transform="translate(43.29 7.215)"/><circle class="h" cx="1.184" cy="1.184" r="1.184" transform="translate(50.505)"/><path class="h" d="M442.364,337.914a1.184,1.184,0,1,1-1.675,0A1.184,1.184,0,0,1,442.364,337.914Z" transform="translate(-433.127 -279.847)"/><circle class="h" cx="1.184" cy="1.184" r="1.184" transform="translate(14.43 50.505)"/><circle class="h" cx="1.184" cy="1.184" r="1.184" transform="translate(21.645 43.29)"/><path class="h" d="M479.366,300.912a1.184,1.184,0,1,1-1.675,0A1.184,1.184,0,0,1,479.366,300.912Z" transform="translate(-448.484 -264.49)"/><circle class="h" cx="1.184" cy="1.184" r="1.184" transform="translate(36.075 28.86)"/><circle class="h" cx="1.184" cy="1.184" r="1.184" transform="translate(43.29 21.645)"/><circle class="h" cx="1.184" cy="1.184" r="1.184" transform="translate(50.505 14.43)"/><circle class="h" cx="1.184" cy="1.184" r="1.184" transform="translate(57.72 7.215)"/><path class="h" d="M454.7,350.248a1.184,1.184,0,1,1-1.675,0A1.184,1.184,0,0,1,454.7,350.248Z" transform="translate(-438.246 -284.966)"/><circle class="h" cx="1.184" cy="1.184" r="1.184" transform="translate(21.645 57.72)"/><circle class="h" cx="1.184" cy="1.184" r="1.184" transform="translate(28.86 50.505)"/><path class="h" d="M491.7,313.246a1.184,1.184,0,1,1-1.675,0A1.184,1.184,0,0,1,491.7,313.246Z" transform="translate(-453.603 -269.609)"/><circle class="h" cx="1.184" cy="1.184" r="1.184" transform="translate(43.29 36.075)"/><circle class="h" cx="1.184" cy="1.184" r="1.184" transform="translate(50.505 28.86)"/><circle class="h" cx="1.184" cy="1.184" r="1.184" transform="translate(57.72 21.645)"/><circle class="h" cx="1.184" cy="1.184" r="1.184" transform="translate(64.935 14.43)"/><path class="h" d="M467.032,362.582a1.184,1.184,0,1,1-1.675,0A1.185,1.185,0,0,1,467.032,362.582Z" transform="translate(-443.365 -290.085)"/><circle class="h" cx="1.184" cy="1.184" r="1.184" transform="translate(28.86 64.935)"/><circle class="h" cx="1.184" cy="1.184" r="1.184" transform="translate(36.075 57.72)"/><path class="h" d="M504.034,325.58a1.184,1.184,0,1,1-1.675,0A1.184,1.184,0,0,1,504.034,325.58Z" transform="translate(-458.722 -274.728)"/><circle class="h" cx="1.184" cy="1.184" r="1.184" transform="translate(50.505 43.29)"/><circle class="h" cx="1.184" cy="1.184" r="1.184" transform="translate(57.72 36.075)"/><circle class="h" cx="1.184" cy="1.184" r="1.184" transform="translate(64.935 28.86)"/><circle class="h" cx="1.184" cy="1.184" r="1.184" transform="translate(72.15 21.645)"/><path class="h" d="M479.366,374.916a1.184,1.184,0,1,1-1.675,0A1.184,1.184,0,0,1,479.366,374.916Z" transform="translate(-448.484 -295.204)"/><circle class="h" cx="1.184" cy="1.184" r="1.184" transform="translate(36.075 72.151)"/><circle class="h" cx="1.184" cy="1.184" r="1.184" transform="translate(43.29 64.936)"/><path class="h" d="M516.368,337.914a1.184,1.184,0,1,1-1.675,0A1.184,1.184,0,0,1,516.368,337.914Z" transform="translate(-463.841 -279.847)"/><circle class="h" cx="1.184" cy="1.184" r="1.184" transform="translate(57.72 50.505)"/><circle class="h" cx="1.184" cy="1.184" r="1.184" transform="translate(64.935 43.29)"/><circle class="h" cx="1.184" cy="1.184" r="1.184" transform="translate(72.15 36.075)"/><circle class="h" cx="1.184" cy="1.184" r="1.184" transform="translate(79.366 28.86)"/><path class="h" d="M491.7,387.25a1.184,1.184,0,1,1-1.675,0A1.184,1.184,0,0,1,491.7,387.25Z" transform="translate(-453.603 -300.323)"/><circle class="h" cx="1.184" cy="1.184" r="1.184" transform="translate(43.29 79.366)"/><circle class="h" cx="1.184" cy="1.184" r="1.184" transform="translate(50.505 72.151)"/><path class="h" d="M528.7,350.248a1.184,1.184,0,1,1-1.674,0A1.184,1.184,0,0,1,528.7,350.248Z" transform="translate(-468.96 -284.966)"/><circle class="h" cx="1.184" cy="1.184" r="1.184" transform="translate(64.935 57.72)"/><circle class="h" cx="1.184" cy="1.184" r="1.184" transform="translate(72.15 50.505)"/><circle class="h" cx="1.184" cy="1.184" r="1.184" transform="translate(79.365 43.29)"/><circle class="h" cx="1.184" cy="1.184" r="1.184" transform="translate(86.581 36.075)"/></g><rect class="n" width="183.449" height="183.449" transform="translate(824.692 852.132) rotate(-45)"/><rect class="b" width="292" height="208" transform="translate(703 711)"/></g></g></g></svg>