<svg height="1420" viewBox="0 0 1336 1420" width="1336" xmlns="http://www.w3.org/2000/svg" xmlns:xlink="http://www.w3.org/1999/xlink"><defs><path id="a" d="m0 0h1337v1556h-1337z"/><mask id="b" fill="#fff"><use fill="#fff" fill-rule="evenodd" xlink:href="#a"/></mask></defs><g fill="none" fill-rule="evenodd"><use fill="#e95e63" xlink:href="#a"/><path d="m77.5 99 60.5 107h-121zm0 740 60.5 107h-121zm0-494 60.5 107h-121zm0 741 60.5 107h-121zm259-987 60.5 107h-121zm0 740 60.5 107h-121zm0-494 60.5 107h-121zm0 741 60.5 107h-121zm-131-934-60.5-107h121zm0 741-60.5-107h121zm0-495-60.5-107h121zm0 741-60.5-107h121zm260-987-60.5-107h121zm0 741-60.5-107h121zm0-495-60.5-107h121zm0 741-60.5-107h121zm129-1040 60.5 107h-121zm0 740 60.5 107h-121zm0-494 60.5 107h-121zm0 741 60.5 107h-121zm130-934-60.5-107h121zm0 741-60.5-107h121zm0-495-60.5-107h121zm0 741-60.5-107h121zm129-1040 60.5 107h-121zm0 740 60.5 107h-121zm0-494 60.5 107h-121zm0 741 60.5 107h-121zm129-934-60.5-107h121zm0 741-60.5-107h121zm0-495-60.5-107h121zm0 741-60.5-107h121zm131-1040 60.5 107h-121zm0 740 60.5 107h-121zm0-494 60.5 107h-121zm0 741 60.5 107h-121zm128-934-60.5-107h121zm0 741-60.5-107h121zm0-495-60.5-107h121zm0 741-60.5-107h121zm-1164-547 60.5 107h-121zm0 741 60.5 107h-121zm259-741 60.5 107h-121zm0 741 60.5 107h-121zm-131-687-60.5-107h121zm0 740-60.5-107h121zm260-740-60.5-107h121zm0 740-60.5-107h121zm129-794 60.5 107h-121zm0 741 60.5 107h-121zm130-687-60.5-107h121zm0 740-60.5-107h121zm129-794 60.5 107h-121zm0 741 60.5 107h-121zm129-687-60.5-107h121zm0 740-60.5-107h121zm131-794 60.5 107h-121zm0 741 60.5 107h-121zm128-687-60.5-107h121zm0 740-60.5-107h121z" mask="url(#b)" opacity=".07" stroke="#fff" stroke-width="34"/></g></svg>